<?xml version="1.0" encoding="utf-8"?>
<!-- Generator: Adobe Illustrator 21.1.0, SVG Export Plug-In . SVG Version: 6.00 Build 0)  -->
<svg version="1.1" id="Layer_1" xmlns="http://www.w3.org/2000/svg" xmlns:xlink="http://www.w3.org/1999/xlink" x="0px" y="0px"
	 viewBox="0 0 153.2 142" style="enable-background:new 0 0 153.2 142;" xml:space="preserve">
<style type="text/css">
	.st0{fill:#FFFFFF;}
</style>
<g>
	<path class="st0" d="M53.4,142c0.2-0.2,0.3-0.4,0.5-0.6c1.8-1.8,3.6-3.6,5.3-5.3c0.2-0.2,0.3-0.3,0.5-0.6c-0.2-0.1-0.3-0.1-0.6-0.2
		c1.3-1.3,2.5-2.5,3.8-3.8c-0.7-0.2-1.2-0.3-1.8-0.5c0.2-0.2,0.3-0.4,0.5-0.5c5.8-5.8,11.6-11.5,17.5-17.3c0.2-0.2,0.5-0.5,0.8-0.4
		c0.4,0,0.7-0.2,1-0.5c2.1-2.1,4.3-4.3,6.4-6.4c0.3-0.3,0.6-0.6,1.1-0.5c0.3,0.1,0.5-0.2,0.7-0.4c1.3-1.3,2.7-2.7,4-4
		c1.3-1.3,2.6-2.6,3.8-3.9c0.2-0.2,0.5-0.4,0.8-0.4c0.3,0.1,0.5-0.2,0.7-0.4c2.2-2.2,4.4-4.4,6.5-6.5c0.9-0.9,1.7-1.7,2.6-2.6
		c0.2-0.2,0.4-0.4,0.8-0.2c-0.2,0.2-0.3,0.3-0.4,0.5c-5.4,5.4-10.7,10.8-16.1,16.2c-12.4,12.5-24.8,25.1-37.2,37.6
		c-0.2,0.2-0.3,0.4-0.4,0.6C54.1,142,53.7,142,53.4,142z"/>
	<path class="st0" d="M144,66.5c-0.2,0.2-0.3,0.4-0.5,0.5c-5.5,5.5-11,11.1-16.4,16.6c-7,7.1-14,14.2-21.1,21.3
		c-6.5,6.5-13,13.1-19.4,19.6c-2.5,2.5-5,5-7.4,7.5c-0.5,0.5-1,0.8-1.7,0.7c-0.8,0-1.7,0-2.5,0c-0.1,0-0.2,0-0.5-0.1
		c20.8-20.6,41.6-41.1,62.4-61.7c0.2,0.5,0,0.9,0.1,1.4c0.1-0.1,0.3-0.2,0.4-0.2c0.4-0.3,0.7-0.7,1.1-1.1c0.2-0.2,0.4-0.4,0.7-0.4
		c0.2,0,0.4-0.2,0.5-0.3c1.2-1.2,2.4-2.4,3.6-3.6C143.4,66.6,143.6,66.3,144,66.5z"/>
	<path class="st0" d="M79.6,132.6c0.1-0.2,0.3-0.3,0.4-0.5c7.9-7.8,15.8-15.7,23.8-23.5c1.7-1.7,3.4-3.3,5-5
		c0.2-0.2,0.4-0.4,0.8-0.4c0.3,0,0.5-0.2,0.7-0.4c3.1-3.1,6.1-6.1,9.2-9.2c0.3-0.3,0.6-0.6,1.1-0.6c0.2,0,0.4-0.2,0.5-0.3
		c1.6-1.5,3.1-3.1,4.6-4.6c3.4-3.4,6.8-6.8,10.2-10.2c0.2-0.2,0.3-0.4,0.5-0.6c0.1,0.3,0.1,0.4,0.2,0.6c0.2-0.2,0.4-0.3,0.5-0.5
		c1.9-1.9,3.8-3.8,5.7-5.7c0.2-0.2,0.5-0.4,0.8-0.4c0.2,0,0.4-0.2,0.6-0.4c2-2,3.9-4,5.9-6c0.2-0.2,0.4-0.5,0.8-0.3
		c-0.2,0.2-0.3,0.3-0.4,0.5c-3,3.1-6.1,6.1-9.1,9.2c-4.6,4.6-9.2,9.3-13.8,13.9c-4.4,4.5-8.9,8.9-13.3,13.4
		c-7,7.1-14,14.2-21.1,21.3c-3,3-6,6-8.9,9.1c-0.4,0.4-0.7,0.6-1.3,0.6c-1.2,0.1-2.3,0.2-3.5,0.3C79.7,132.6,79.6,132.6,79.6,132.6z
		"/>
	<path class="st0" d="M136,81.9c-0.1,0.8-0.3,1.6-0.4,2.4c0,0,0.1,0,0.1,0.1c0.2-0.1,0.3-0.3,0.5-0.4c1.2-1.2,2.4-2.4,3.6-3.6
		c0.2-0.2,0.4-0.5,0.7-0.3c0,0.2-0.2,0.4-0.4,0.5c-3.8,3.9-7.7,7.8-11.6,11.7c-7.2,7.2-14.3,14.5-21.5,21.7
		c-5.5,5.6-11,11.1-16.5,16.7c-0.4,0.4-0.8,0.6-1.3,0.7c-1.3,0.2-2.6,0.5-4,0.8C85.5,131.6,134.9,82.7,136,81.9z"/>
	<path class="st0" d="M10.9,140c2-2,4-4,6-5.9c-0.1-0.1-0.2-0.1-0.3-0.2c1.7-1.7,3.5-3.5,5.2-5.2c-0.2-0.1-0.3-0.1-0.5-0.1
		c2.3-2.3,4.7-4.7,7-7c-0.2-0.1-0.4-0.1-0.6-0.1c0.4-0.5,0.9-0.9,1.3-1.4c0.5-0.5,0.9-0.9,1.4-1.4c0.4-0.4,0.9-0.9,1.3-1.3
		c0.4-0.4,0.9-0.9,1.4-1.4c-0.2-0.2-0.3-0.4-0.5-0.6c4.6-4.6,9.3-9.2,13.9-13.8c0.2,0.1,0.3,0.2,0.5,0.4c0.1-0.1,0.2-0.2,0.3-0.2
		c2.6-2.6,5.2-5.2,7.8-7.8c0.3-0.3,0.5-0.6,1-0.6c0.2,0,0.3-0.2,0.5-0.4c2.5-2.5,5-4.9,7.4-7.4c2-2,4-4,6-6c0.2-0.2,0.4-0.5,0.8-0.6
		c0.2,0,0.3-0.3,0.5-0.4c2.8-2.8,5.6-5.6,8.5-8.4c0.2-0.2,0.5-0.5,0.9-0.5c0.2,0,0.4-0.3,0.6-0.4c3.6-3.6,7.3-7.3,10.9-10.9
		c0.1-0.1,0.3-0.3,0.4-0.4c0.1-0.1,0.3-0.1,0.4-0.1c0,0,0,0.1,0.1,0.1c-0.1,0.2-0.3,0.3-0.4,0.5c-4.9,5-9.9,9.9-14.8,14.9
		c-7.2,7.3-14.5,14.6-21.7,21.9c-14.7,14.9-29.5,29.8-44.2,44.6C11.7,139.8,11.5,140.2,10.9,140z"/>
	<path class="st0" d="M134.5,88.3c0,0.1,0,0.3-0.1,0.4c-0.4,1.1-0.7,2.3-1.1,3.4c-0.1,0.3-0.3,0.6-0.5,0.8c-4.5,4.5-9,9.1-13.5,13.6
		c-7,7.1-14.1,14.2-21.1,21.4c-0.7,0.7-1.5,1.2-2.5,1.5c-1.2,0.4-2.4,0.7-3.6,1.1c-0.2,0.1-0.3,0.1-0.6,0
		c14.3-14.1,28.5-28.2,42.8-42.3C134.5,88.2,134.5,88.3,134.5,88.3z"/>
	<path class="st0" d="M14.2,72c0-1,0-1.8,0-2.5c0-0.2,0.2-0.3,0.3-0.5c3.8-3.8,7.6-7.6,11.5-11.4c3.6-3.6,7.3-7.2,10.9-10.7
		c5.8-5.8,11.7-11.6,17.5-17.3c1.1-1.1,2.2-2.1,3.3-3.2c0.2-0.2,0.4-0.4,0.7-0.4c0.3,0,0.5-0.2,0.7-0.4c2.9-2.9,5.8-5.8,8.8-8.8
		c0.3-0.3,0.5-0.5,0.9-0.6c0.2,0,0.3-0.2,0.5-0.4c3.1-3.1,6.2-6.2,9.3-9.4c1-1,1.9-1.9,2.9-2.9c0.2-0.2,0.4-0.4,0.8-0.2
		C59.6,26.1,37,49,14.2,72z"/>
	<path class="st0" d="M65.4,131.8c0.2-0.1,0.4-0.3,0.6-0.4c6.4-6.3,12.8-12.7,19.2-19c0.3-0.3,0.6-0.5,0.9-0.5
		c1.5-0.2,2.7-1,3.7-2.1c1.7-1.9,3.6-3.6,5.4-5.5c0.3-0.3,0.6-0.5,1-0.4c0.4,0.1,0.6-0.2,0.8-0.4c3.3-3.3,6.6-6.6,9.8-9.8
		c0.2-0.2,0.5-0.5,1-0.3c-0.2,0.2-0.4,0.4-0.5,0.6c-5.2,5.2-10.3,10.4-15.5,15.6c-7.5,7.5-14.9,15-22.4,22.5
		c-0.4,0.4-0.8,0.7-1.5,0.5c-0.7-0.2-1.4-0.2-2.1-0.3c-0.1,0-0.2-0.1-0.4-0.1C65.4,131.9,65.4,131.8,65.4,131.8z"/>
	<path class="st0" d="M80.8,65c-0.6,0.6-1.1,1.2-1.7,1.7c-6.4,6.5-12.8,13-19.3,19.4c-12.9,13-25.8,26.1-38.7,39.1
		c-0.3,0.3-0.5,0.7-1.1,0.4c2.7-2.7,5.3-5.4,8.1-8.1c-0.2-0.1-0.4-0.1-0.6-0.2c1.2-1.2,2.4-2.4,3.6-3.6c-0.4-0.4-0.7-0.8-1-1.2
		c0.2-0.2,0.3-0.4,0.5-0.5c2.9-2.8,5.7-5.7,8.6-8.5c0.2-0.2,0.5-0.4,0.8-0.4c0.4,0.1,0.6-0.2,0.8-0.4c2-2,4.1-4,6.1-6.1
		c0.3-0.3,0.6-0.5,1.1-0.5c0.2,0,0.4-0.1,0.6-0.2c0.2-0.1,0.3-0.3,0.4-0.4c4-4,7.9-7.9,11.9-11.9c0.2-0.2,0.5-0.5,0.9-0.5
		c0.2,0,0.3-0.2,0.5-0.3c0.7-0.7,1.3-1.3,2-2c5.2-5.2,10.4-10.4,15.6-15.6C80,65.1,80.3,64.8,80.8,65z"/>
	<path class="st0" d="M72.5,132.7c-1-0.1-1.8-0.1-2.7-0.2c0-0.3,0.3-0.4,0.4-0.6c4.2-4.1,8.3-8.2,12.5-12.4c3.4-3.3,6.8-6.7,10.1-10
		c0.2-0.2,0.5-0.4,0.8-0.6c3-1.4,5.7-3.2,8.3-5.3c0.2-0.1,0.3-0.2,0.5-0.4c0,0,0,0,0.1,0c-0.2,0.3-0.5,0.5-0.7,0.7
		c-6.4,6.4-12.8,12.9-19.2,19.3c-4.1,4.1-8.2,8.2-12.2,12.4c-0.3,0.3-0.7,0.5-1.2,0.3C70.3,135,71.4,133.9,72.5,132.7z"/>
	<path class="st0" d="M131.8,95.9c0,0.1-0.1,0.2-0.1,0.3c-0.2,0.4-0.4,0.8-0.5,1.2c-2,4.3-2,4.3-5.4,7.7
		c-6.2,6.3-12.5,12.6-18.7,18.9c-0.3,0.3-0.7,0.6-1,0.8c-2,1.2-4,2.2-6.1,3.1c-0.2,0.1-0.4,0.2-0.7,0.2
		C110.1,117.2,120.9,106.5,131.8,95.9C131.8,95.8,131.8,95.8,131.8,95.9z"/>
	<path class="st0" d="M49.1,103.7c0.2,0.1,0.4,0.2,0.6,0.4c0.2-0.2,0.4-0.3,0.5-0.5c2.3-2.3,4.6-4.6,6.9-6.9
		c0.3-0.3,0.6-0.5,1.1-0.5c0.2,0,0.4-0.1,0.6-0.2c0.1-0.1,0.2-0.2,0.3-0.3c3.1-3.1,6.2-6.2,9.3-9.3c0.2-0.2,0.4-0.5,0.8-0.4
		c0.1,0,0.3-0.1,0.4-0.2c0.1-0.1,0.3-0.2,0.4-0.4c4.5-4.5,8.9-8.9,13.4-13.4c0.2-0.2,0.5-0.5,0.9-0.3c-0.2,0.2-0.4,0.4-0.5,0.6
		c-5.5,5.6-11.1,11.2-16.6,16.7c-11.1,11.2-22.2,22.4-33.3,33.6c-0.3,0.3-0.5,0.6-1.1,0.3c1.3-1.3,2.5-2.5,3.9-3.9
		c-0.5-0.5-1-0.9-1.6-1.4C39.8,112.9,44.4,108.3,49.1,103.7z"/>
	<path class="st0" d="M46,125.3c-0.8-0.5-1.6-0.9-2.4-1.4c4.9-4.9,9.8-9.6,14.6-14.5c0.3,0.1,0.5,0.2,0.8,0.3
		c0.2-0.1,0.3-0.3,0.5-0.5c2.4-2.4,4.8-4.8,7.2-7.2c0.3-0.3,0.5-0.5,0.9-0.5c0.2,0,0.5-0.2,0.6-0.4c1.9-1.9,3.8-3.8,5.8-5.8
		c0.8-0.8,1.5-1.5,2.3-2.3c0.2-0.2,0.4-0.4,0.7-0.3c0.3,0.1,0.6-0.1,0.8-0.4c1.5-1.5,3.1-3.1,4.6-4.6c2.7-2.7,5.4-5.4,8.1-8.1
		c0.2-0.2,0.4-0.5,0.9-0.3C76.2,94.7,61.2,110,46,125.3z"/>
	<path class="st0" d="M14.4,66.6c0-0.9,0.1-1.7,0.3-2.6c0-0.2,0.3-0.4,0.4-0.5c5-5,10.1-10,15.1-15c1.8-1.7,3.5-3.5,5.3-5.2
		c0.2-0.2,0.4-0.4,0.8-0.5c0.2,0,0.4-0.2,0.6-0.4c2.9-2.9,5.8-5.8,8.7-8.7c0.2-0.2,0.4-0.4,0.7-0.6c0.1-0.1,0.2-0.2,0.3-0.2
		c0.5,0,0.7-0.4,1-0.7c3-2.9,5.9-5.9,8.9-8.8c0.2-0.2,0.4-0.4,0.7-0.5c0.2,0,0.3-0.3,0.5-0.4c3.9-3.9,7.8-7.8,11.7-11.7
		c0.2-0.2,0.4-0.5,0.9-0.3C51.6,29.2,33.1,47.9,14.5,66.7C14.5,66.6,14.4,66.6,14.4,66.6z"/>
	<path class="st0" d="M90.9,100c-0.7,0.7-1.3,1.4-2,2c-11.4,11.4-22.7,22.9-34,34.4c-0.4,0.4-0.7,0.6-1.3,0.4c0.5-0.6,1-1,1.5-1.5
		c0.5-0.5,1-1,1.5-1.5c0.5-0.5,1-1,1.4-1.4c0.5-0.5,1-1,1.5-1.6c-0.8-0.2-1.5-0.5-2.2-0.7c0.2-0.2,0.3-0.3,0.4-0.5
		c5.4-5.3,10.8-10.7,16.2-16c0.3-0.3,0.6-0.5,1.1-0.4c1,0.2,1.6-0.2,2.3-0.9c1.2-1.3,2.6-2.6,3.9-3.9c0.2-0.2,0.5-0.5,0.8-0.4
		c0.4,0.1,0.6-0.2,0.8-0.4c2.4-2.4,4.8-4.8,7.2-7.2C90.3,100,90.5,99.8,90.9,100z"/>
	<path class="st0" d="M57.8,48.1C44.2,61.9,30.6,75.6,16.9,89.4c-0.2-0.8-0.5-1.5-0.6-2.2c0-0.2,0.2-0.4,0.3-0.5c1-1,2-2,3.1-3.1
		c4.2-4.1,8.3-8.2,12.5-12.4c0.5-0.5,1.1-1,1.6-1.6c0.1,0.2,0.1,0.3,0.2,0.4c0.1-0.1,0.2-0.1,0.2-0.2c1.9-1.9,3.9-3.9,5.8-5.8
		c0.3-0.3,0.5-0.6,1-0.6c0.2,0,0.4-0.2,0.6-0.4c2-2,3.9-3.9,5.9-5.9c0.3-0.3,0.5-0.5,0.9-0.5c0.2,0,0.4-0.2,0.6-0.4
		c2.7-2.7,5.4-5.3,8-8C57.2,48.2,57.3,47.9,57.8,48.1z"/>
	<path class="st0" d="M107.8,97.9c0.1-0.2,0.2-0.3,0.3-0.5c1.8-2.3,3.4-4.8,4.8-7.4c0.1-0.3,0.3-0.6,0.6-0.8
		c7.6-7.5,15.1-15,22.7-22.5c0.1-0.1,0.3-0.2,0.5-0.4c0.1,0.8,0.1,1.5,0.1,2.3c0,0.2-0.2,0.4-0.3,0.5c-1.2,1.2-2.4,2.4-3.6,3.6
		c-5.3,5.3-10.5,10.6-15.8,15.9c-2.9,2.9-5.8,5.8-8.7,8.8c-0.2,0.2-0.4,0.4-0.5,0.7C107.9,98,107.8,98,107.8,97.9z"/>
	<path class="st0" d="M64.5,11.2C48,27.8,31.6,44.4,15.2,60.9c0,0-0.1,0-0.1-0.1c0.2-0.9,0.3-1.8,0.5-2.6c0.1-0.2,0.2-0.4,0.4-0.6
		c2.6-2.5,5.1-5.1,7.7-7.6c3.3-3.3,6.6-6.5,9.9-9.8c0.2-0.2,0.5-0.5,0.7-0.7c0.1-0.1,0.2-0.2,0.3-0.2c0.4,0,0.6-0.3,0.9-0.5
		c2.8-2.8,5.6-5.6,8.4-8.4c0.2-0.2,0.4-0.4,0.8-0.5c0.2,0,0.4-0.2,0.6-0.4c3.1-3.1,6.2-6.4,9.5-9.4c3.1-2.8,6-5.9,9-8.8
		C63.9,11.2,63.9,11.2,64.5,11.2z"/>
	<path class="st0" d="M42.9,123.4c-0.8-0.5-1.5-1-2.3-1.5c4.8-4.8,9.6-9.5,14.4-14.2c0.4,0.2,0.8,0.4,1.2,0.6
		c0.2-0.2,0.3-0.3,0.5-0.5c2.6-2.6,5.2-5.2,7.8-7.8c0.3-0.3,0.5-0.5,0.9-0.5c0.2,0,0.4-0.2,0.6-0.3c1.4-1.4,2.7-2.7,4.1-4.1
		c1.8-1.8,3.6-3.6,5.4-5.4c0.3-0.3,0.5-0.5,1-0.3C65.3,100.8,54.1,112.1,42.9,123.4z"/>
	<path class="st0" d="M5.8,110c-0.1-0.1-0.1-0.2-0.2-0.3c1.7-1.7,3.4-3.4,5.2-5.2c-0.2-0.1-0.3-0.1-0.5-0.2c2.9-2.9,5.8-5.8,8.8-8.8
		c-0.1-0.4-0.3-0.7-0.4-1.1c5.2-5.2,10.5-10.4,15.8-15.6c0.2,0.7,0.3,1.2,0.4,1.9c0.8-0.8,1.5-1.5,2.2-2.2c0.2-0.2,0.4-0.4,0.7-0.2
		c-0.1,0.2-0.3,0.3-0.4,0.4C25.2,91,13.1,103.2,1,115.5c-0.3,0.3-0.5,0.6-1,0.4C1.9,113.9,3.9,111.9,5.8,110z"/>
	<path class="st0" d="M29.4,111.9c-0.5-0.6-1-1.2-1.6-1.9c4.7-4.6,9.4-9.3,14.1-13.9c0.2,0.3,0.4,0.5,0.7,0.8c0.5-0.5,1.1-1,1.6-1.5
		c2.3-2.3,4.5-4.5,6.8-6.8c0.3-0.3,0.6-0.5,1-0.5c0.2,0,0.4-0.2,0.6-0.3c0.8-0.8,1.6-1.6,2.4-2.4c2.6-2.6,5.3-5.3,7.9-7.9
		c0.3-0.3,0.5-0.5,1-0.3C63.4,77.6,30.7,110.8,29.4,111.9z"/>
	<path class="st0" d="M49.4,127c-0.9-0.4-1.7-0.8-2.6-1.3c5-5,10-9.9,15-14.9c0.5,0.2,1,0.3,1.6,0.5c0.2-0.2,0.3-0.3,0.5-0.5
		c1.8-1.8,3.6-3.6,5.4-5.4c0.2-0.2,0.5-0.5,0.9-0.5c0.2,0,0.4-0.2,0.6-0.4c1.9-1.9,3.7-3.7,5.6-5.6c1-1,2-2,3-3
		c0.2-0.2,0.4-0.5,0.9-0.2C69.9,106.2,59.7,116.5,49.4,127z"/>
	<path class="st0" d="M57.9,12.8C44.2,26.6,30.5,40.5,16.6,54.5c0-0.3,0.1-0.4,0.1-0.5c0-0.1,0.1-0.2,0.1-0.3
		c0.3-0.8,0.4-1.7,0.8-2.3c0.4-0.7,1.1-1.2,1.7-1.8c8.1-8,16.2-16,24.2-24c0.9-0.9,1.9-1.8,2.8-2.8c0.1-0.1,0.4-0.3,0.5-0.3
		c0.4,0,0.6-0.2,0.9-0.5c2.8-2.8,5.6-5.6,8.4-8.4C56.7,13,57.2,12.8,57.9,12.8z"/>
	<path class="st0" d="M135.3,57.8c0.1,0.2,0.2,0.3,0.2,0.4c0.1-0.1,0.2-0.1,0.3-0.2c1.2-1.2,2.4-2.5,3.6-3.7
		c0.2-0.2,0.5-0.4,0.8-0.4c0.2,0,0.4-0.2,0.6-0.4c1.3-1.3,2.7-2.7,4-4.1c0.3-0.3,0.5-0.5,0.9-0.5c0.2,0,0.4-0.2,0.6-0.4
		c2-2,4-4,6-6.1c0.2-0.2,0.4-0.5,0.9-0.3C141,54.5,128.8,66.7,116.7,79c0,0-0.1,0-0.1,0c0-0.3,0.1-0.6,0.1-1
		c0.1-0.5,0.2-0.9,0.2-1.4c0-0.6,0.3-1,0.7-1.4c5.7-5.7,11.5-11.4,17.2-17C134.9,58.1,135.1,58,135.3,57.8z"/>
	<path class="st0" d="M41.3,47.6c-0.1,0.1-0.2,0.3-0.3,0.4c-0.9,1.4-1.7,2.9-2.6,4.3c-0.2,0.3-0.4,0.5-0.6,0.8
		c-6.1,6.2-12.3,12.4-18.4,18.6c-2.2,2.3-4.5,4.5-6.7,6.8c-0.3,0.3-0.5,0.5-1,0.3c0.1-0.1,0.2-0.3,0.3-0.4c0.6-0.7,1.3-1.3,1.9-1.9
		c0.2-0.2,0.3-0.4,0.3-0.8c0-0.5-0.2-1.1,0-1.6c0.2-0.4,0.7-0.7,1-1.1c7.6-7.5,15.1-15,22.7-22.5c0.9-0.9,1.8-1.8,2.7-2.7
		C40.9,47.8,41.1,47.7,41.3,47.6C41.2,47.6,41.3,47.6,41.3,47.6z"/>
	<path class="st0" d="M23,103.2c-0.4-0.8-0.8-1.4-1.2-2.1c4.9-4.9,9.8-9.7,14.8-14.6c0.1,0.2,0.2,0.4,0.4,0.7
		c0.5-0.5,1.1-1.1,1.6-1.6c0.2-0.2,0.5-0.4,0.8-0.4c0.2,0,0.5-0.2,0.6-0.4c2-2,4-4,5.9-5.9c0.3-0.3,0.5-0.5,0.9-0.5
		c0.2,0,0.4-0.2,0.6-0.4c2.1-2.1,4.1-4.1,6.2-6.2c0.6-0.6,1.3-1.3,1.9-1.9c0.2-0.2,0.4-0.4,0.8-0.2C45.2,80.8,34.1,92,23,103.2z"/>
	<path class="st0" d="M133.1,50.2c0.2,0.4,0.3,0.8,0.5,1.2c0.2-0.1,0.3-0.3,0.5-0.4c1-1,2-2,3-3c0.2-0.2,0.4-0.4,0.7-0.2
		c-0.2,0.2-0.3,0.4-0.5,0.5c-4.4,4.4-8.8,8.9-13.2,13.3c-7.2,7.2-14.3,14.4-21.5,21.7c-1.4,1.5-2.9,2.9-4.3,4.4
		c-0.2,0.2-0.4,0.4-0.8,0.3c0.6-0.6,1.1-1.2,1.7-1.7c0.6-0.6,1.2-1.2,1.8-1.8c0.6-0.6,1.1-1.1,1.7-1.7c0.6-0.6,1.1-1.1,1.7-1.7
		c-0.1-0.1-0.2-0.2-0.4-0.2c2.6-2.6,5.2-5.2,7.8-7.9c-0.1-0.1-0.2-0.1-0.4-0.2c0.1-0.1,0.2-0.3,0.4-0.4c1.6-1.6,3.2-3.2,4.8-4.8
		c0.3-0.3,0.5-0.5,0.4-0.9c-0.1-0.3,0.1-0.5,0.3-0.7c2.1-2.1,4.2-4.2,6.3-6.3c3-2.9,5.9-5.8,8.9-8.8
		C132.7,50.6,132.8,50.4,133.1,50.2z"/>
	<path class="st0" d="M9.9,110.8c2.7-2.7,5.3-5.3,8-8c-0.2-0.1-0.3-0.1-0.5-0.2c1.1-1.1,2.3-2.3,3.4-3.4c-0.2-0.4-0.4-0.9-0.6-1.3
		c5.1-5,10.1-10,15.2-15.1c0.1,0.4,0.3,0.8,0.4,1.2c0.2-0.1,0.3-0.3,0.5-0.4c0.5-0.5,1-1.1,1.6-1.6c0.1-0.1,0.3-0.3,0.5-0.3
		c0.4,0,0.6-0.2,0.8-0.4c2.1-2.1,4.2-4.2,6.4-6.4c0.2-0.2,0.4-0.5,0.8-0.3c-0.5,0.6-1.1,1.1-1.6,1.6c-6.1,6.2-12.2,12.3-18.3,18.5
		c-5.2,5.2-10.3,10.4-15.5,15.7C10.6,110.8,10.4,111.1,9.9,110.8z"/>
	<path class="st0" d="M15.8,85.3c-0.1-0.7-0.3-1.4-0.4-2c-0.1-0.3,0.1-0.4,0.2-0.6c0.4-0.4,0.7-0.7,1.1-1.1
		c5.8-5.7,11.5-11.4,17.3-17.1c0.1-0.1,0.3-0.3,0.5-0.5c0,0.5-0.1,0.9-0.1,1.4c0.2-0.2,0.4-0.3,0.5-0.4c1.2-1.2,2.5-2.5,3.7-3.7
		c0.2-0.2,0.4-0.4,0.7-0.4c0.3,0,0.5-0.2,0.7-0.4c2.7-2.7,5.3-5.3,8-8c0.2-0.2,0.4-0.5,0.8-0.4C48.4,52.6,16.3,85,15.8,85.3z"/>
	<path class="st0" d="M73,108.1c-6.7,6.8-13.4,13.6-20.2,20.4c-0.9-0.4-1.8-0.8-2.7-1.2c0.2-0.2,0.4-0.4,0.6-0.6
		c4.8-4.8,9.7-9.6,14.5-14.4c0.3-0.3,0.6-0.5,1.1-0.3c0.4,0.1,0.8,0.2,1.2,0.3c0.4,0.1,0.6,0,0.9-0.3c1.2-1.2,2.5-2.5,3.7-3.7
		C72.3,108.1,72.5,107.9,73,108.1z"/>
	<path class="st0" d="M53.6,128.7c0.2-0.2,0.3-0.3,0.5-0.5c5.1-5,10.2-10.1,15.3-15.1c0.3-0.3,0.6-0.4,1-0.4
		c0.8,0.1,1.5,0.2,2.3,0.2c0.1,0,0.2,0,0.3,0.1c-0.2,0.2-0.3,0.4-0.4,0.5c-5.2,5.3-10.4,10.5-15.6,15.8c-0.3,0.3-0.6,0.4-1.1,0.2
		c-0.6-0.3-1.2-0.4-1.8-0.6C53.9,128.9,53.8,128.8,53.6,128.7z"/>
	<path class="st0" d="M101.8,48.3c1.6-1.6,3.1-3.2,4.7-4.8c-0.3-0.3-0.5-0.5-0.7-0.8c0.1-0.1,0.2-0.3,0.3-0.4
		c4.4-4.4,8.8-8.7,13.2-13.1c1.3-0.8,2.2-2,3.2-3c1.1-1,2.1-2.1,3.1-3.2c0.9-0.9,1.7-1.7,2.6-2.6c0.2-0.2,0.4-0.2,0.6-0.3
		c0.2-0.1,0.4-0.2,0.6-0.4c2.2-2.2,4.4-4.5,6.7-6.7c0.3-0.3,0.7-0.6,1-1c0.2-0.2,0.4-0.3,0.7-0.4c0.2,0,0.5-0.2,0.6-0.4
		c1.6-1.6,3.2-3.2,4.8-4.8c1.8-1.8,3.6-3.6,5.4-5.4c0.2-0.2,0.4-0.5,0.8-0.3c-0.2,0.2-0.3,0.3-0.4,0.5c-4.9,4.9-9.8,9.9-14.7,14.8
		c-5.2,5.3-10.5,10.6-15.7,15.8c-4.6,4.7-9.3,9.4-13.9,14c-0.7,0.7-1.4,1.4-2.1,2.2C102.4,48.3,102.2,48.5,101.8,48.3z"/>
	<path class="st0" d="M8.6,87.1c0.2-0.2,0.3-0.4,0.5-0.5c1.8-1.8,3.6-3.6,5.4-5.4c0.3-0.3,0.4-0.6,0.3-1c-0.1-0.3-0.1-0.5-0.1-0.8
		c-0.1-0.4,0-0.8,0.4-1.1c2.9-2.8,5.7-5.6,8.5-8.4c4-4,8-7.9,12-11.9c0.2-0.2,0.3-0.3,0.6-0.5c-0.1,0.3-0.1,0.5-0.2,0.6
		c-0.2,0.8-0.5,1.5-0.7,2.3c-0.1,0.4-0.3,0.7-0.6,1c-2.7,2.7-5.5,5.5-8.2,8.2c-5.7,5.7-11.4,11.5-17,17.2C9.3,87,9.1,87.3,8.6,87.1z
		"/>
	<path class="st0" d="M13.6,97.1c1.5-1.5,2.9-2.9,4.4-4.4c-0.2-0.6-0.4-1.2-0.6-1.9c5.5-5.4,11-10.9,16.6-16.4
		c0.1,0.5,0.1,0.8,0.2,1.3c0.2-0.2,0.4-0.3,0.5-0.5c0.8-0.8,1.5-1.6,2.3-2.3c0.1-0.1,0.4-0.3,0.5-0.3c0.4,0,0.6-0.2,0.9-0.5
		c2.1-2.1,4.2-4.2,6.3-6.3c0.2-0.2,0.4-0.5,0.8-0.3c-0.2,0.2-0.3,0.3-0.4,0.5c-6.2,6.3-12.5,12.6-18.7,18.9
		c-3.9,4-7.8,7.9-11.8,11.9C14.3,97,14.1,97.3,13.6,97.1z"/>
	<path class="st0" d="M114.7,85.9c0-0.2,0.1-0.3,0.1-0.5c0.3-0.9,0.6-1.9,0.9-2.8c0.1-0.5,0.3-0.9,0.7-1.2
		c5.8-5.7,11.5-11.4,17.3-17.1c0.7-0.7,1.3-1.3,2-2c0.1-0.1,0.3-0.2,0.5-0.4c0.1,0.7,0.2,1.4,0.3,2c0,0.1-0.1,0.3-0.2,0.4
		c-0.2,0.2-0.4,0.4-0.6,0.7c-4.8,4.9-9.6,9.7-14.5,14.6c-2,2-3.9,3.9-5.9,5.9C115.1,85.6,115,85.8,114.7,85.9
		C114.8,85.9,114.7,85.9,114.7,85.9z"/>
	<path class="st0" d="M39.9,121.4c-0.4-0.3-0.7-0.5-1.1-0.8c-0.3-0.2-0.7-0.5-1.1-0.8c4.7-4.7,9.4-9.3,14.1-14
		c0.5,0.3,1.1,0.7,1.6,1c0.2-0.1,0.3-0.3,0.4-0.4c1.4-1.4,2.7-2.7,4.1-4.1c0.2-0.2,0.4-0.4,0.8-0.3c0,0,0,0,0,0.1c0,0,0,0,0,0.1
		c-6.2,6.3-12.5,12.6-18.7,18.9C40.1,121.2,40,121.3,39.9,121.4z"/>
	<path class="st0" d="M114.4,56.2c-0.2-0.6-0.6-1.1-0.6-1.6c0-0.5,0.6-0.8,1-1.2c4.3-4.3,8.7-8.6,13.1-12.9c0.2-0.2,0.3-0.5,0.7-0.3
		c0.1,0,0.3-0.2,0.4-0.3c1-1.1,2.1-2.1,3.1-3.2c0.3-0.3,0.5-0.7,1.1-0.7c0.2,0,0.3-0.2,0.5-0.4c1.9-1.9,3.7-3.8,5.6-5.7
		c0.2-0.2,0.4-0.4,0.7-0.4c0.2,0,0.4-0.1,0.5-0.3c3-3,6-6,9-9c0.4-0.4,0.8-0.8,1.2-1.2c0.2-0.2,0.4-0.3,0.7-0.1
		C139,31.5,126.7,43.8,114.4,56.2z"/>
	<path class="st0" d="M142.5,2.8c-12.7,12.9-25.4,25.7-38.1,38.5c-0.4-0.3-0.7-0.6-1.1-1c0.1-0.1,0.2-0.3,0.3-0.4
		c4.4-4.4,8.9-8.8,13.3-13.1c0.4-0.4,0.9-0.6,1.3-1c1.8-1.8,3.6-3.7,5.4-5.5c0.2-0.2,0.4-0.4,0.8-0.4c0.2,0,0.4-0.2,0.6-0.4
		c1.8-1.8,3.6-3.6,5.3-5.4c0.3-0.3,0.5-0.7,1.1-0.7c0.2,0,0.3-0.2,0.5-0.4c2.7-2.7,5.4-5.5,8.1-8.2c0.6-0.6,1.2-1.2,1.8-1.8
		C141.9,2.8,142.1,2.6,142.5,2.8z"/>
	<path class="st0" d="M46.1,89.9c-6.3,6.4-12.6,12.8-19,19.2c-0.5-0.7-1-1.3-1.5-2c4.7-4.7,9.5-9.4,14.2-14.1
		c0.3,0.5,0.6,0.9,0.9,1.4c0.2-0.2,0.4-0.3,0.5-0.5c1.3-1.3,2.6-2.6,3.8-3.9C45.4,89.9,45.7,89.8,46.1,89.9z"/>
	<path class="st0" d="M112.6,77.5c0.1-0.2,0.3-0.3,0.4-0.5c1.3-1.3,2.5-2.5,3.8-3.8c0.2-0.2,0.4-0.5,0.4-0.8c0-0.3,0.1-0.6,0-0.9
		c-0.1-0.6,0.2-1.1,0.6-1.5c5.4-5.3,10.7-10.6,16.1-15.9c0.1-0.1,0.2-0.2,0.4-0.4c0.1,0.4,0.3,0.8,0.4,1.2c0.1-0.1,0.3-0.1,0.4-0.2
		c0.7-0.7,1.3-1.3,2-2c0.2-0.2,0.4-0.4,0.7-0.2c-0.1,0.2-0.3,0.3-0.4,0.5c-3.8,3.9-7.7,7.8-11.5,11.6c-4.1,4.1-8.2,8.3-12.3,12.4
		c-0.1,0.1-0.2,0.3-0.4,0.4c-0.1,0.1-0.3,0.1-0.5,0.2C112.7,77.6,112.7,77.6,112.6,77.5z"/>
	<path class="st0" d="M39.2,92c-4.7,4.8-9.4,9.5-14.2,14.3c-0.5-0.7-0.9-1.3-1.4-2.1c4.8-4.8,9.6-9.5,14.5-14.3
		C38.5,90.6,38.9,91.3,39.2,92z"/>
	<path class="st0" d="M116.2,61.9c5.1-5.1,10.3-10.2,15.5-15.3c0.2,0.4,0.4,0.7,0.6,1.1c0.4-0.4,0.7-0.7,1.1-1.1
		c0.4-0.4,0.9-0.9,1.3-1.3c0.2-0.2,0.3-0.4,0.7-0.1c-0.2,0.2-0.3,0.4-0.5,0.5c-5.1,5.2-10.2,10.3-15.4,15.5
		c-3.9,4-7.8,7.9-11.8,11.9c-0.2,0.2-0.4,0.6-0.9,0.3c1.8-1.8,3.6-3.6,5.4-5.4c-0.1-0.1-0.2-0.2-0.3-0.2c1-1,2-2,3-3
		c0.4-0.4,0.8-0.9,1.3-1.3c0.3-0.3,0.4-0.5,0.2-0.9C116.2,62.4,116.2,62.2,116.2,61.9z"/>
	<path class="st0" d="M130.1,43.3c0.2,0.2,0.3,0.4,0.4,0.6c0.2-0.2,0.3-0.3,0.5-0.4c0.8-0.8,1.7-1.7,2.5-2.5
		c0.2-0.2,0.4-0.3,0.7-0.4c0.2,0,0.5-0.2,0.6-0.4c1.4-1.4,2.9-2.9,4.3-4.3c1-1,2.1-2.1,3.1-3.1c0.2-0.2,0.4-0.5,0.8-0.3
		c-0.2,0.2-0.3,0.4-0.5,0.5c-4.5,4.6-9.1,9.2-13.6,13.7c-4.9,5-9.8,10-14.8,14.9c-0.2,0.2-0.4,0.6-0.9,0.4c0.1-0.1,0.2-0.2,0.3-0.3
		c0.6-0.6,1.2-1.2,1.8-1.8c0.3-0.2,0.3-0.5,0.2-0.8c-0.1-0.3-0.2-0.6-0.3-1C120.1,53.2,125,48.3,130.1,43.3z"/>
	<path class="st0" d="M81.5,9.1c-0.1,0.2-0.3,0.3-0.4,0.5c-6.5,6.6-13,13.1-19.5,19.7c-1.5,1.6-3.1,3.1-4.6,4.7
		c-0.2,0.2-0.5,0.4-0.7,0.6c-1.3,0.8-2.5,1.5-3.8,2.3c-0.1,0.1-0.2,0.1-0.3,0.1c0.1-0.2,0.3-0.3,0.4-0.5
		c6.6-6.6,13.3-13.1,19.9-19.7c2.1-2,4.1-4.1,6.2-6.1c0.3-0.3,0.6-0.5,1.1-0.5c0.2,0,0.4-0.1,0.5-0.2c0.3-0.2,0.5-0.5,0.8-0.7
		C81,9.1,81.2,9,81.4,9C81.4,9,81.4,9.1,81.5,9.1z"/>
	<path class="st0" d="M142.6,22.8c-9.9,10-19.8,20-29.7,30c-0.3-0.5-0.5-1-0.8-1.5c4.8-4.7,9.5-9.4,14.3-14.1
		c0.2,0.1,0.3,0.3,0.5,0.4c0.1-0.1,0.2-0.1,0.2-0.2c1.9-1.9,3.8-3.9,5.8-5.8c0.3-0.3,0.5-0.6,1-0.6c0.2,0,0.4-0.2,0.6-0.4
		c2.5-2.5,4.9-4.9,7.3-7.4C141.9,22.9,142.1,22.6,142.6,22.8z"/>
	<path class="st0" d="M70.8,44.4c2.2-2.2,4.4-4.5,6.6-6.7c-0.1-0.1-0.2-0.2-0.3-0.3c2.2-2.2,4.4-4.5,6.7-6.8
		c-0.2-0.1-0.3-0.2-0.5-0.3c5.3-5.2,10.5-10.4,15.8-15.6c0.3,0.1,0.5,0.2,0.8,0.3c0.4-0.5,0.9-1,1.4-1.5c1.3-1.3,2.6-2.7,4-4
		c0.2-0.2,0.4-0.5,0.8-0.3c-0.2,0.2-0.4,0.4-0.6,0.6c-4,4.1-8.1,8.2-12.2,12.3C88.2,27.4,83.1,32.6,78,37.8
		c-2.1,2.1-4.2,4.2-6.3,6.3C71.5,44.3,71.3,44.6,70.8,44.4z"/>
	<path class="st0" d="M107,48.1c0.6-0.6,1.2-1.2,1.8-1.8c-0.2-0.3-0.4-0.6-0.7-1c4.7-4.6,9.3-9.2,13.9-13.8c0.1,0.1,0.3,0.2,0.5,0.3
		c0.2-0.1,0.3-0.3,0.5-0.5c1.8-1.8,3.6-3.6,5.4-5.5c0.2-0.2,0.4-0.4,0.8-0.4c0.2,0,0.5-0.2,0.6-0.4c2.4-2.4,4.9-4.9,7.3-7.4
		c0.2-0.2,0.4-0.5,0.9-0.3c-0.2,0.2-0.3,0.4-0.5,0.5c-2.3,2.3-4.6,4.6-6.8,6.9c-5.2,5.2-10.4,10.5-15.6,15.7
		c-2.4,2.4-4.8,4.9-7.2,7.3C107.6,48,107.4,48.3,107,48.1z"/>
	<path class="st0" d="M101.3,38.7c-0.3-0.2-0.5-0.4-0.7-0.7c0.2-0.2,0.3-0.3,0.5-0.5c3.2-3.2,6.5-6.4,9.7-9.6
		c0.2-0.2,0.5-0.5,0.8-0.4c0.3,0.1,0.5-0.2,0.6-0.4c2.9-3,5.8-5.9,8.8-8.9c0.2-0.2,0.5-0.5,0.9-0.5c0.1,0,0.3-0.2,0.4-0.3
		c3.2-3.2,6.3-6.4,9.5-9.6c0.5-0.5,0.9-0.9,1.4-1.4c0.3-0.3,0.3-0.2,0.7-0.2c-0.2,0.2-0.3,0.3-0.5,0.5c-5.4,5.5-10.9,11-16.3,16.5
		c-4.6,4.7-9.2,9.3-13.9,14c-1,1-2,2.1-3,3.1c-0.2,0.2-0.4,0.4-0.8,0.2C100.1,40,100.7,39.4,101.3,38.7z"/>
	<path class="st0" d="M105.3,0.1c-0.2,0.2-0.4,0.4-0.5,0.6c-4.4,4.4-8.7,8.8-13.1,13.2c-5,5.1-10.1,10.2-15.1,15.3
		c-0.5,0.5-0.9,0.8-1.6,0.7c-0.2,0-0.5,0-0.8,0c0-0.3,0.2-0.4,0.4-0.6c4-3.9,8-7.9,11.9-11.8c1.6-1.6,3.1-3.1,4.7-4.7
		c0.2-0.2,0.4-0.5,0.8-0.4c0.1,0,0.3-0.2,0.5-0.3c1.3-1.3,2.7-2.7,4-4c0.2-0.2,0.4-0.4,0.8-0.5c0.2,0,0.4-0.2,0.6-0.4
		c2.2-2.2,4.4-4.4,6.6-6.7C104.7,0.2,104.9-0.1,105.3,0.1z"/>
	<path class="st0" d="M50,15.7C39.8,26,29.8,36.2,19.7,46.4c0,0-0.1-0.1-0.1-0.1c0.3-0.6,0.6-1.3,0.9-1.9c0.6-1.3,1.4-2.4,2.4-3.3
		c2.2-2.1,4.3-4.2,6.4-6.4c0.3-0.3,0.5-0.5,0.9-0.4c0.3,0.1,0.5-0.2,0.6-0.4c1.6-1.6,3.2-3.2,4.7-4.7c1.2-1.2,2.5-2.5,3.7-3.7
		c0.2-0.2,0.4-0.4,0.7-0.4c0.2,0,0.5-0.2,0.6-0.4c2.8-2.8,5.5-5.5,8.3-8.3C49.2,16.1,49.4,15.8,50,15.7z"/>
	<path class="st0" d="M62.1,31.8c0.1-0.2,0.3-0.3,0.4-0.5c5.7-5.6,11.4-11.3,17.1-16.9c1.2-1.1,2.3-2.3,3.4-3.4
		c0.4-0.4,0.7-0.5,1.2-0.4c0.1,0,0.3,0.1,0.5,0.1c-0.2,0.2-0.3,0.4-0.5,0.5c-4.1,4.1-8.1,8.2-12.2,12.3c-2.4,2.4-4.7,4.8-7.1,7.2
		c-0.3,0.3-0.6,0.5-0.9,0.6C63.4,31.5,62.8,31.7,62.1,31.8C62.1,31.9,62.1,31.9,62.1,31.8z"/>
	<path class="st0" d="M95.2,5.3c-0.2,0.2-0.3,0.4-0.5,0.5C91.1,9.4,87.6,13,84,16.6c-4.2,4.3-8.5,8.6-12.7,12.9
		c-0.4,0.4-0.7,0.6-1.2,0.6c-0.4,0-0.8,0.1-1.3,0.2c0-0.3,0.3-0.4,0.4-0.6c4.1-4.1,8.2-8.2,12.4-12.2c1.9-1.9,3.9-3.8,5.8-5.7
		c0.3-0.3,0.5-0.5,1-0.4c0.1,0,0.4-0.1,0.5-0.2c0.4-0.4,0.7-0.7,1.1-1.1c1.5-1.5,3-3,4.5-4.6C94.7,5.3,94.8,5.1,95.2,5.3z"/>
	<path class="st0" d="M108.9,19.9c0.3,0.2,0.6,0.4,1,0.6c-0.2,0.2-0.3,0.3-0.4,0.5c-4,4.1-8,8.1-12.1,12.2
		c-3.6,3.6-7.2,7.2-10.8,10.9c-0.2,0.2-0.4,0.5-0.8,0.3c1.5-1.6,3.1-3.1,4.6-4.7c-0.1-0.1-0.2-0.1-0.3-0.2c1.6-1.6,3.2-3.3,4.9-4.9
		c-0.2-0.1-0.3-0.3-0.4-0.4C99.3,29.4,104.1,24.7,108.9,19.9z"/>
	<path class="st0" d="M117.2,3.2c-9.5,9.6-18.9,19.1-28.4,28.7c-0.4-0.1-0.9-0.3-1.4-0.4c0.2-0.2,0.3-0.4,0.5-0.5
		c3.5-3.5,7-6.9,10.5-10.4c0.2-0.2,0.5-0.4,0.8-0.4c0.2,0,0.4-0.2,0.6-0.4c2.3-2.3,4.5-4.5,6.8-6.8c0.3-0.3,0.5-0.5,0.9-0.6
		c0.2,0,0.4-0.3,0.5-0.4c2.8-2.8,5.6-5.6,8.3-8.4C116.5,3.3,116.7,3,117.2,3.2z"/>
	<path class="st0" d="M93.3,41.9c1.7-1.8,3.5-3.5,5.2-5.3c-0.3-0.2-0.5-0.4-0.8-0.6c4.7-4.7,9.5-9.4,14.2-14.1
		c0.2,0.2,0.4,0.3,0.7,0.4c0.2-0.2,0.3-0.3,0.5-0.5c1.7-1.7,3.5-3.5,5.2-5.2c0.2-0.2,0.4-0.5,0.8-0.3c-0.2,0.2-0.3,0.3-0.4,0.5
		c-5.8,5.8-11.6,11.7-17.4,17.5c-2.4,2.4-4.7,4.8-7.1,7.1C93.9,41.8,93.7,42.1,93.3,41.9z"/>
	<path class="st0" d="M105.8,18.1c0.3,0.1,0.4,0.2,0.7,0.3c0.2-0.2,0.5-0.5,0.7-0.7c0.7-0.7,1.5-1.5,2.2-2.2
		c0.2-0.2,0.4-0.3,0.7-0.2c-0.2,0.2-0.3,0.3-0.4,0.5c-4.9,5-9.8,10-14.8,14.9c-2,2-4,4-6,6c-0.2,0.2-0.4,0.5-0.8,0.3
		c1.3-1.3,2.5-2.5,3.8-3.8c-0.3-0.2-0.6-0.3-0.9-0.5C96,27.8,100.9,23,105.8,18.1z"/>
	<path class="st0" d="M96.7,13.8c-0.4,0.4-0.8,0.8-1.1,1.2c-4.5,4.6-9.1,9.1-13.6,13.7c-1.5,1.5-3,3-4.5,4.6
		c-0.2,0.2-0.4,0.5-0.8,0.2c1.2-1.2,2.3-2.3,3.5-3.5c-0.4-0.1-0.7-0.1-1.1-0.2c0.2-0.2,0.3-0.3,0.4-0.5c4.3-4.3,8.6-8.6,13-12.8
		c0.9-0.9,1.8-1.7,2.7-2.6c0.4-0.4,0.7-0.5,1.2-0.3C96.3,13.7,96.5,13.7,96.7,13.8z"/>
	<path class="st0" d="M124.6,34.7c0.2,0.1,0.3,0.1,0.4,0.2c0.2-0.2,0.3-0.3,0.5-0.5c1.2-1.2,2.3-2.4,3.5-3.5
		c0.2-0.2,0.4-0.5,0.7-0.3c-0.2,0.4-17.3,17.8-18.7,18.9c-0.3-0.4-0.5-0.8-0.8-1.3c0.1-0.1,0.2-0.3,0.3-0.4c2.5-2.5,5.1-5,7.6-7.6
		c0.2-0.2,0.4-0.4,0.7-0.3c0.4,0.1,0.6-0.1,0.9-0.4c1.4-1.4,2.8-2.9,4.3-4.3C124.2,35.1,124.4,34.9,124.6,34.7z"/>
	<path class="st0" d="M125.5,107c-4.1,5.7-9,10.6-14.8,14.7c0,0-0.1-0.1-0.1-0.1c4.9-4.9,9.9-9.8,14.8-14.7
		C125.5,107,125.5,107,125.5,107z"/>
	<path class="st0" d="M27.7,33.1c2.8-3.5,5.9-6.6,9.4-9.3c-3.1,3.1-6.2,6.3-9.3,9.4C27.7,33.1,27.7,33.1,27.7,33.1z"/>
</g>
</svg>
