<?xml version="1.0" encoding="utf-8"?>
<!-- Generator: Adobe Illustrator 20.1.0, SVG Export Plug-In . SVG Version: 6.00 Build 0)  -->
<svg version="1.1" id="Capa_1" xmlns="http://www.w3.org/2000/svg" xmlns:xlink="http://www.w3.org/1999/xlink" x="0px" y="0px"
	 viewBox="0 0 512 512" style="enable-background:new 0 0 512 512;" xml:space="preserve">
<style type="text/css">
	.st0{fill:#FFFFFF;}
</style>
<g>
	<g>
		<path class="st0" d="M256.1,51c-9.9,0-17.9,8.1-17.9,18v326.5L157,314.4c-7-7-18.4-7-25.4,0c-7,7-7,18.4,0,25.4l111.8,111.8
			c3.3,3.3,7.9,5.2,12.7,5.2c4.8,0,9.3-1.9,12.7-5.2l111.8-111.9c7-7,7-18.4,0-25.4c-7-7-18.4-7-25.4,0l-81.1,81.1V69
			C274,59.1,266,51,256.1,51z"/>
		<path class="st0" d="M476.6,545.1c0-9.9-8.1-18-18-18H53.4c-9.9,0-18,8.1-18,18c0,9.9,8.1,17.9,18,17.9h405.2
			C468.6,563.1,476.6,555.1,476.6,545.1z"/>
	</g>
</g>
</svg>
