<?xml version="1.0" encoding="utf-8"?>
<!-- Generator: Adobe Illustrator 21.1.0, SVG Export Plug-In . SVG Version: 6.00 Build 0)  -->
<svg version="1.1" xmlns="http://www.w3.org/2000/svg" xmlns:xlink="http://www.w3.org/1999/xlink" x="0px" y="0px"
	 viewBox="0 0 16037.2 9300.1" style="enable-background:new 0 0 16037.2 9300.1;" xml:space="preserve">
<style type="text/css">
	.st0{display:none;}
	.st1{display:inline;opacity:0.8;enable-background:new    ;}
	.st2{display:inline;}
</style>
<g id="Layer_1" class="st0">
	<title>Cover</title>
	<path class="st1" d="M10020.2,2650.1v4000h-4000v-4000H10020.2z M7819.2,4623.8v-41.7h29.3c13.2,0,21.9,8.5,21.9,20.9
		c0,11.8-7.8,18.3-15.9,19.6l16.4,26.2h-13.6l-14.7-24.9h-9.2v-0.1H7819.2z M8338.2,4582.1h17.6c13.2,0,21.9,8.5,21.9,20.9
		c0,11.8-7.8,18.3-15.9,19.6l16.4,26.2h-13.6l-14.7-24.9h-11.7v24.9h0L8338.2,4582.1L8338.2,4582.1z M8211.2,4616.1
		c0-0.2,0-0.3,0-0.5c0-19.9,14.1-34.5,34.1-34.5c19.9,0,34.1,14.6,34.1,34.5s-14.2,34.5-34.1,34.5h-0.1v-10.4h0.1
		c13.4,0,22.1-10.4,22.1-24.1c0-13.8-8.7-24.1-22.1-24.1c-13.5,0-22.1,10.3-22.1,24.1c0,0.2,0,0.3,0,0.5H8211.2L8211.2,4616.1z
		 M7976,4612.8v9.6c0,16.5-9.5,27.6-28.9,27.6c-19.3,0-28.9-11.1-28.9-27.6v-40.3h11.9v40c0,10.6,5.9,17.5,17,17.5s17-6.9,17-17.5
		v-9.3H7976z M7673.9,4648.8v-66.7h-11.7v66.7H7673.9z M8448.4,4650.1c17.9,0,25.8-9.6,25.8-20.7c0-24.8-38.8-17.1-38.8-29.6
		c0-4.9,4.4-8.3,11.2-8.3c7,0,14.1,2.4,19.4,7.7l6.6-8.7c-6.1-6-14.6-9.4-24.9-9.4c-14.7,0-24.3,8.5-24.3,19.6
		c0,24.5,38.8,15.8,38.8,29.8c0,4.5-3.7,9.2-13.3,9.2c-9.3,0-16.6-4.4-21.1-9.3l-6.6,9.1C8427.2,4645.7,8436.1,4650.1,8448.4,4650.1
		L8448.4,4650.1z M7746.4,4650.1c17.9,0,25.8-9.6,25.8-20.7c0-24.8-38.8-17.1-38.8-29.6c0-4.9,4.4-8.3,11.2-8.3
		c7,0,14.1,2.4,19.4,7.7l6.6-8.7c-6.1-6-14.6-9.4-24.9-9.4c-14.7,0-24.3,8.5-24.3,19.6c0,24.5,38.8,15.8,38.8,29.8
		c0,4.5-3.7,9.2-13.3,9.2c-9.3,0-16.6-4.4-21.1-9.3l-6.6,9.1C7725.2,4645.7,7734.1,4650.1,7746.4,4650.1L7746.4,4650.1z
		 M8037.9,4648.8v-25h17.7c13.9,0,21.7-9.5,21.7-20.8c0-11.4-7.7-20.9-21.7-20.9h-29.4v66.7H8037.9L8037.9,4648.8z M8053.3,4614.2
		h-16.1v-21.1h16.1c6.6,0,11.3,4.2,11.3,10.6C8064.6,4610,8059.9,4614.2,8053.3,4614.2z M8150.1,4648.8v-56.4h20.2v-10.3h-52.1v10.3
		h20.2v56.4L8150.1,4648.8L8150.1,4648.8z M8354.3,4613.3h-16.1v-21.2h16.1c6.6,0,11.4,4.1,11.4,10.5
		C8365.7,4609.1,8360.9,4613.3,8354.3,4613.3z M7567.2,4582.1h12.3c20.9,0,34.9,13.8,34.9,33.3c0,19.7-14,33.4-34.8,33.4h-12.4
		v-10.3h12.3c14.5,0,22.9-10.4,22.9-23.1c0-12.8-8-23-22.8-23h-12.4V4582.1z M7847.3,4614.3h-16.1v-21.2h16.1
		c6.6,0,11.4,4.1,11.4,10.5C7858.7,4610.1,7853.9,4614.3,7847.3,4614.3z M7924.2,4540.1c8.4,0,14.1-5.5,14.1-13.5
		c0-7.9-5.7-13.5-14.1-13.5h-10v27H7924.2L7924.2,4540.1z M8126.6,4538.5v1.6h-4.6l-14.1-19.3v19.3h-4.7v-27h4.9l12.3,16.7
		L8126.6,4538.5z M8038.9,4525.5v-12.4h-4.7v12.4H8038.9L8038.9,4525.5z M7961.9,4528.4L7961.9,4528.4l0,7.5h13.8v4.2h-18.5v-27
		h18.5v4.2h-13.8v7h0V4528.4z M7924.5,4536.8h-5.3v-18.7h5.3c6,0,9.2,4.1,9.2,9.3C7933.7,4532.5,7930.3,4536.8,7924.5,4536.8
		L7924.5,4536.8z M8072.3,4541.1c4.7,0,8.5-2,11.1-4.9V4526h-12.8v4.2h8.1v4.2c-1.2,1.2-3.6,2.4-6.4,2.4c-5.3,0-9.3-4.1-9.3-9.8
		c0-5.7,4-9.8,9.3-9.8c3,0,5.5,1.6,7,3.6l3.8-2.2c-2.1-3.1-5.6-5.6-10.9-5.6c-7.9,0-14.2,5.5-14.2,14
		C8058.2,4535.5,8064.5,4541.1,8072.3,4541.1L8072.3,4541.1z M8005.2,4541c7.2,0,10.4-3.9,10.4-8.4c0-10-15.7-6.9-15.7-12
		c0-2,1.8-3.4,4.5-3.4c2.8,0,5.7,1,7.9,3.1l2.7-3.5c-2.5-2.4-5.9-3.8-10.1-3.8c-6,0-9.8,3.4-9.8,7.9c0,9.9,15.7,6.4,15.7,12.1
		c0,1.8-1.5,3.7-5.4,3.7c-3.8,0-6.7-1.8-8.5-3.8l-2.7,3.7C7996.6,4539.2,8000.2,4541,8005.2,4541L8005.2,4541z"/>
</g>
<g id="Layer_2">
	<g class="st0">
		<path class="st2" d="M6017.1,2650.1v4000h4003.1v-4000H6017.1z M7630.5,4594.2v-45.8h-0.1l-17.6,45.8h-11.2l-17.7-45.3h-0.2v45.3
			h-17.4v-72.1h23.3l17.7,44.2l16.9-44.2h24.1l0,72.1H7630.5z M7677,4581l-4.8,13.3h-19.1l27.7-72.1h20.4l27.7,72.1h-19.2l-4.9-13.3
			H7677z M7733,4623.4h-5.8l-1.9,8.7h5.2v2.4h-5.8l-1.8,8h-2.7l1.7-8h-8.8l-1.7,8h-2.7l1.7-8h-5.2v-2.4h5.8l1.9-8.7h-5.2l0-2.4h5.8
			l1.6-7.4h2.7l-1.6,7.4h8.8l1.6-7.4h2.7l-1.6,7.4h5.2V4623.4z M7772.1,4642.4h-10.7v-28.8h10.4c5.2,0,9.3,2.5,9.3,7.2
			c0,1.3-0.3,4.8-4.4,6.6c4.3,1.1,5.7,4.9,5.7,7.1C7782.3,4640.1,7777.5,4642.4,7772.1,4642.4z M7774.9,4594.2l-22.8-34.1v34.1
			h-18.3v-72.1h18.3v30.9l22.2-30.9h21.4l-24.8,34.2l26.5,37.8H7774.9z M7829.3,4642.4h-18.2v-28.8h18v2.8h-15v10h13.7v2.8h-13.7
			v10.5h15.2V4642.4z M7852.9,4594.2h-50.6v-72.1h50.4v16.1h-32.4v11.8h29.4v15.5h-29.4v12.4h32.6V4594.2z M7870.1,4642.7
			c-8,0-14.4-5.9-14.4-14.6c0-8.8,6.6-14.8,14.5-14.8s11.9,5.5,12.9,9.5l-2.9,1c-0.5-1.9-2.9-7.6-10-7.6c-6.1,0-11.3,4.8-11.3,11.8
			c0,6.8,4.8,11.9,11.3,11.9c6.9,0,9.3-5.3,10.1-7.7l2.9,1C7882.2,4636.7,7878.4,4642.7,7870.1,4642.7z M7873.1,4522.2h20.5
			l14.5,25.8l14.6-25.8h20l-25.7,44.3v27.8h-18.2v-27.8L7873.1,4522.2z M7923.8,4642.7c-8.3,0-14.5-6.4-14.5-14.6
			c0-8.3,6.2-14.8,14.5-14.8c8.3,0,14.5,6.4,14.5,14.6C7938.4,4636.2,7932.2,4642.7,7923.8,4642.7z M7997.3,4642.4h-3v-24.7h0
			l-10.7,24.7h-2.7l-10.6-24.5h0v24.5h-3v-28.8h4.3l10.8,24.7l10.7-24.7h4.3V4642.4z M7977.2,4595.3c-20.8,0-37.7-16.2-37.7-37.1
			c0-20.9,17.1-37.2,37.8-37.2s37.5,16.1,37.5,37C8014.8,4578.9,7998,4595.3,7977.2,4595.3z M8046.3,4642.4h-18.2v-28.8h18v2.8h-15
			v10h13.7v2.8h-13.7v10.5h15.2V4642.4z M8023.1,4565.8v-43.6h18.3v43.3c0,7.2,3.5,12.9,11.7,12.9c9.1,0,11.7-6.3,11.7-12.4v-43.7
			h18.3v43.4c0,18.3-9.8,29.7-30.2,29.7C8031.9,4595.3,8023.1,4582.9,8023.1,4565.8z M8086.1,4642.4h-10.7v-28.8h10.4
			c5.2,0,9.3,2.5,9.3,7.2c0,1.3-0.3,4.8-4.4,6.6c4.3,1.1,5.7,4.9,5.7,7.1C8096.3,4640.1,8091.5,4642.4,8086.1,4642.4z
			 M8143.3,4642.4h-18.2v-28.8h18v2.8h-15v10h13.7v2.8h-13.7v10.5h15.2V4642.4z M8134.3,4594.2l-13.3-25.3h-7.5v25.3h-18.2v-72.1
			h29.6c15.9,0,27,7.5,27,23.2c0,10.6-5.3,17.2-13.3,20.5l14.9,28.4H8134.3z M8191.5,4616.5h-9.6v26h-3v-26h-9.6v-2.8h22.3V4616.5z
			 M8238.2,4616.5h-9.6v26h-3v-26h-9.6v-2.8h22.3V4616.5z M8245.9,4594.2v-45.8h-0.1l-17.6,45.8H8217l-17.7-45.3h-0.2v45.3h-17.4
			v-72.1h23.3l17.7,44.2l16.9-44.2h24.1l0,72.1H8245.9z M8284,4642.4h-18.2v-28.8h18v2.8h-15v10h13.7v2.8h-13.7v10.5h15.2V4642.4z
			 M8330.4,4642.4l-8.5-11.7h-5.9v11.7h-3v-28.8h10c7,0,10.1,3.9,10.1,8.4c0,4.9-3.6,7.7-7.9,8.2l8.9,12.2H8330.4z M8310.3,4595.3
			c-20.8,0-37.7-16.2-37.7-37.1c0-20.9,17.1-37.2,37.8-37.2c20.8,0,37.5,16.1,37.5,37C8347.9,4578.9,8331.1,4595.3,8310.3,4595.3z
			 M8392.8,4594.2h-19.1l-25.9-72.1h20l15.7,47.7l15.7-47.7h19.6L8392.8,4594.2z M8475.8,4594.2h-50.6v-72.1h50.4v16.1h-32.4v11.8
			h29.4v15.5h-29.4v12.4h32.6V4594.2z"/>
		<path class="st2" d="M7977.2,4537.9c-11,0-19.1,9.4-19.1,20.1s8.1,20.2,19.1,20.2s19.1-9.5,19.1-20.2S7988.2,4537.9,7977.2,4537.9
			z"/>
		<path class="st2" d="M8091.9,4621.2c0-3.5-3.1-4.8-6.5-4.8h-7.1v10h6.9C8090,4626.4,8091.9,4624,8091.9,4621.2z"/>
		<path class="st2" d="M8123.6,4537.8h-9.9v15.6h10c6.6,0,10.2-2.7,10.2-7.4C8133.8,4541.4,8131,4537.8,8123.6,4537.8z"/>
		<path class="st2" d="M7923.8,4616.1c-6.6,0-11.3,5.4-11.3,11.8c0,6.5,4.7,12,11.4,12c6.6,0,11.3-5.3,11.3-11.8
			C7935.2,4621.6,7930.6,4616.1,7923.8,4616.1z"/>
		<path class="st2" d="M8085.6,4629.1h-7.2v10.5h7.8c3.1,0,7-1.3,7-5.4C8093.2,4630.2,8088.9,4629.1,8085.6,4629.1z"/>
		<path class="st2" d="M7777.9,4621.2c0-3.5-3.1-4.8-6.5-4.8h-7.1v10h6.9C7776,4626.4,7777.9,4624,7777.9,4621.2z"/>
		<path class="st2" d="M7771.6,4629.1h-7.2v10.5h7.8c3.1,0,7-1.3,7-5.4C7779.1,4630.2,7774.9,4629.1,7771.6,4629.1z"/>
		<path class="st2" d="M8310.3,4537.9c-11,0-19.1,9.4-19.1,20.1s8.1,20.2,19.1,20.2c11,0,19.1-9.5,19.1-20.2
			S8321.3,4537.9,8310.3,4537.9z"/>
		<polygon class="st2" points="7682.3,4565.6 7699.6,4565.6 7690.8,4542.6 		"/>
		<path class="st2" d="M8330.1,4622.1c0-2.8-1.8-5.7-7.3-5.7h-6.8v11.6h6.7C8328,4628,8330.1,4625,8330.1,4622.1z"/>
		<polygon class="st2" points="7713.9,4632.1 7722.7,4632.1 7724.6,4623.4 7715.8,4623.4 		"/>
	</g>
	<g>
		<path d="M7803.8,4487.7h429.5v-60h-429.5V4487.7z M8189.8,4445h16.7v5H8195v5.2h10.3v5H8195v5.5h11.5v4.9h-16.8V4445z
			 M8168.2,4444.6c7.2,0,11,4.8,11.8,8.2l-5,1.7c-0.3-1.6-2.5-4.8-6.9-4.8c-4.5,0-7.7,3.6-7.7,8c0,4.4,3.2,8,7.7,8
			c4.3,0,6.5-3.2,7-5.1l5,1.7c-0.7,3.1-4.6,8.4-12.1,8.4c-7,0-13.1-5.2-13.1-13C8155,4450.2,8161.2,4444.6,8168.2,4444.6z
			 M8122.5,4445h6.1l11,17.2V4445h5.2v25.5h-5.9l-11.1-17.5v17.5h-5.2V4445z M8095.1,4445h16.7v5h-11.4v5.2h10.2v5h-10.2v5.5h11.5
			v4.9h-16.8V4445z M8078.1,4445h5.2v25.5h-5.2V4445z M8048.5,4445h10c5,0,9,2.7,9,8.1c0,3.7-2,6.1-4.8,7.3l5.4,10.1h-5.8l-4.8-9.2
			h-3.8v9.2h-5.2V4445z M8021.1,4445h16.6v5h-11.4v5.2h10.3v5h-10.3v5.5h11.5v4.9h-16.7V4445z M7992.8,4445h9.5
			c5.1,0,9.1,2.8,9.1,8.2c0,5.6-4,8.3-9.3,8.3h-4h-0.1v9h-5.2V4445z M7959.9,4445h6.1l5.7,8.3l5.7-8.3h6.1l-8.7,12.3l9.2,13.1h-6.1
			l-6.2-9.2l-6.3,9.2h-5.9l9.2-13.1L7959.9,4445z M7935,4445h16.6v5h-11.4v5.2h10.3v5h-10.3v5.5h11.5v4.9H7935V4445z M7893.6,4445
			h16.6v5h-11.4v5.2h10.3v5h-10.3v5.5h11.5v4.9h-16.7V4445z M7860.6,4445h5.3v10.1h10.7V4445h5.2v25.5h-5.2v-10.3h-10.7v10.3h-5.3
			V4445z M7830.7,4445h20.5v5.1h-7.6v20.4h-5.2v-20.4h-7.7V4445z"/>
		<path d="M8006,4453.3c0-2.5-2.1-3.3-4.3-3.3h-3.7v6.6h3.7C8003.9,4456.6,8006,4455.7,8006,4453.3z"/>
		<path d="M8062.2,4453.2c0-2.4-2.1-3.2-4.1-3.2h-4.3v6.5h4.4C8060.1,4456.4,8062.2,4455.5,8062.2,4453.2z"/>
		<path d="M0,0v9300.1h16037.2V0H0z M8237.4,4427.7v60v4h-4h-429.5h-4v-4v-60v-4h4h429.5h4V4427.7z"/>
	</g>
</g>
</svg>
