<?xml version="1.0" encoding="utf-8"?>
<!-- Generator: Adobe Illustrator 19.0.0, SVG Export Plug-In . SVG Version: 6.00 Build 0)  -->
<svg version="1.1" id="Layer_1" xmlns="http://www.w3.org/2000/svg" xmlns:xlink="http://www.w3.org/1999/xlink" x="0px" y="0px"
	 viewBox="84 -594 960 1800" style="enable-background:new 84 -594 960 1800;" xml:space="preserve">
<style type="text/css">
	.st0{display:none;opacity:0.8;enable-background:new    ;}
	.st1{fill:#FFFFFF;}
</style>
<title>header-intro-resp</title>
<path class="st0" d="M84.3-594h960v1800h-960V-594z M543,95.8c10.3,0,14.9-5.5,14.9-11.9c0-14.3-22.4-9.9-22.4-17.1
	c0-2.8,2.5-4.8,6.5-4.8s8.1,1.4,11.2,4.4l3.8-5c-3.5-3.5-8.4-5.4-14.4-5.4c-8.5,0-14,4.9-14,11.3c0,14.1,22.4,9.1,22.4,17.2
	c0,2.6-2.1,5.3-7.7,5.3c-5.4,0-9.6-2.5-12.1-5.4l-3.8,5.2C530.8,93.2,535.9,95.8,543,95.8L543,95.8L543,95.8z M638.5,95.8
	c6.6,0,12-2.8,15.8-7V74.4h-18.2v5.9h11.5v5.9c-1.7,1.7-5.2,3.5-9.1,3.5c-7.6,0-13.3-5.9-13.3-13.9c0-8.1,5.7-13.9,13.3-13.9
	c4.3,0,7.9,2.2,10,5.1l5.5-3.2c-3-4.4-8-8-15.5-8c-11.2,0-20.2,7.8-20.2,19.9C618.3,87.9,627.3,95.8,638.5,95.8L638.5,95.8
	L638.5,95.8L638.5,95.8z M428.7,95.5c12,0,20.1-7.9,20.1-19.3c0-11.2-8.1-19.2-20.1-19.2h-14.3v38.5H428.7z M428.9,89.6h-7.6V63h7.6
	c8.5,0,13.1,5.9,13.1,13.3C442.1,83.6,437.2,89.6,428.9,89.6z M482.1,78.8L482.1,78.8v10.7h19.6v5.9h-26.3V57h26.3v5.9H482v9.9l0,0
	L482.1,78.8L482.1,78.8L482.1,78.8z M591,74.7V57h-6.7v17.7H591L591,74.7z M715.6,93.2v2.3h-6.5l-20-27.5v27.5h-6.8V57h6.9
	l17.5,23.7L715.6,93.2L715.6,93.2z M414.3,143h14.3c24.3,0,40.5,16,40.5,38.6c0,22.9-16.3,38.8-40.4,38.8h-14.5v-12h14.3
	c16.8,0,26.6-12.1,26.6-26.8c0-14.8-9.3-26.7-26.5-26.7h-14.4L414.3,143L414.3,143L414.3,143z M451.3,469.4V404h23.4v-12h-60.5v12
	h23.4v65.4H451.3L451.3,469.4z M668.9,344.4v-29h20.5c16.1,0,25.2-11,25.2-24.1c0-13.2-8.9-24.2-25.2-24.2h-34.1v77.4h13.6V344.4z
	 M688,303.5h-18.7V279H688c7.7,0,13.1,4.9,13.1,12.3C701.1,298.6,695.7,303.5,688,303.5L688,303.5z M685.9,220.1
	c20.8,0,30-11.1,30-24c0-28.8-45-19.8-45-34.3c0-5.7,5.1-9.6,13-9.6c8.1,0,16.4,2.8,22.5,8.9l7.7-10.1c-7.1-7-16.9-10.9-28.9-10.9
	c-17.1,0-28.2,9.9-28.2,22.7c0,28.4,45,18.3,45,34.6c0,5.2-4.3,10.7-15.4,10.7c-10.8,0-19.3-5.1-24.5-10.8l-7.7,10.6
	C661.3,215,671.6,220.1,685.9,220.1L685.9,220.1L685.9,220.1L685.9,220.1z M444.9,596.1c20.8,0,29.9-11.1,29.9-24
	c0-28.8-45-19.8-45-34.3c0-5.7,5.1-9.6,13-9.6c8.1,0,16.4,2.8,22.5,8.9L473,527c-7.1-7-16.9-10.9-28.9-10.9
	c-17.1,0-28.2,9.9-28.2,22.7c0,28.4,45,18.3,45,34.6c0,5.2-4.3,10.7-15.4,10.7c-10.8,0-19.3-5.1-24.5-10.8l-7.7,10.6
	C420.3,591,430.6,596.1,444.9,596.1L444.9,596.1L444.9,596.1L444.9,596.1z M571.3,218.9v-77.4h-13.6v77.4H571.3z M598.4,302.6v11.1
	c0,19.1-11,32-33.5,32c-22.4,0-33.5-12.9-33.5-32V267h13.8v46.4c0,12.3,6.9,20.3,19.7,20.3c12.9,0,19.7-8,19.7-20.3v-10.8
	L598.4,302.6L598.4,302.6L598.4,302.6z M531.3,431.6c0-0.2,0-0.4,0-0.6c0-23.1,16.4-40,39.6-40c23.1,0,39.6,16.9,39.6,40
	s-16.5,40-39.6,40h-0.1v-12h0.1c15.6,0,25.7-12.1,25.7-28c0-16-10.1-28-25.7-28c-15.7,0-25.7,12-25.7,28v0.6H531.3L531.3,431.6
	L531.3,431.6z M668.3,392h20.4c15.3,0,25.4,9.9,25.4,24.2c0,13.7-9,21.2-18.5,22.7l19,30.4H699l-17.1-28.9h-13.6v28.9l0,0L668.3,392
	L668.3,392z M687,428.6h-18.7V404H687c7.7,0,13.2,4.8,13.2,12.2C700.2,423.7,694.6,428.6,687,428.6L687,428.6z M414.3,315.4V267h34
	c15.3,0,25.4,9.9,25.4,24.2c0,13.7-9.1,21.2-18.5,22.7l19,30.4h-15.8l-17.1-28.9h-10.7v-0.1L414.3,315.4L414.3,315.4z M446,303.6
	h-18.7V279H446c7.7,0,13.2,4.8,13.2,12.2C459.2,298.7,453.6,303.6,446,303.6L446,303.6z"/>
<g>
	<path d="M545.6,219.7c-4.7,0-8.1,4-8.1,8.5s3.4,8.5,8.1,8.5c4.7,0,8.1-4,8.1-8.5S550.3,219.7,545.6,219.7z"/>
	<path d="M591.4,258.2h-3.1v4.5h3.3c1.3,0,3-0.5,3-2.3C594.6,258.7,592.8,258.2,591.4,258.2z"/>
	<path d="M523.1,252.7c-2.8,0-4.8,2.3-4.8,5s2,5.1,4.8,5.1c2.8,0,4.8-2.3,4.8-5C527.9,255,525.9,252.7,523.1,252.7z"/>
	<path d="M594.1,254.9c0-1.5-1.3-2-2.7-2h-3v4.2h2.9C593.3,257.1,594.1,256.1,594.1,254.9z"/>
	<path d="M458.7,258.2h-3.1v4.5h3.3c1.3,0,3-0.5,3-2.3C461.9,258.7,460.2,258.2,458.7,258.2z"/>
	<path d="M607.5,219.6h-4.2v6.6h4.2c2.8,0,4.3-1.1,4.3-3.1S610.6,219.6,607.5,219.6z"/>
	<polygon points="421,231.4 428.3,231.4 424.6,221.6 	"/>
	<polygon points="434.4,259.4 438.1,259.4 438.9,255.8 435.2,255.8 	"/>
	<path d="M461.4,254.9c0-1.5-1.3-2-2.7-2h-3v4.2h2.9C460.6,257.1,461.4,256.1,461.4,254.9z"/>
	<path d="M84.2-594v1800h960V-594H84.2z M399.1,243.5v-19.4H399l-7.4,19.4h-4.7l-7.5-19.1h-0.1v19.1H372V213h9.9l7.5,18.7l7.2-18.7
		h10.2v30.5H399.1z M418.8,237.9l-2,5.6h-8.1l11.7-30.5h8.6l11.7,30.5h-8.1l-2.1-5.6H418.8z M442.5,255.8H440l-0.8,3.7h2.2v1H439
		l-0.7,3.4h-1.1l0.7-3.4h-3.7l-0.7,3.4h-1.1l0.7-3.4h-2.2v-1h2.4l0.8-3.7h-2.2v-1h2.4l0.7-3.1h1.1l-0.7,3.1h3.7l0.7-3.1h1.1
		l-0.7,3.1h2.2v1H442.5z M459,263.8h-4.5v-12.2h4.4c2.2,0,3.9,1.1,3.9,3.1c0,0.6-0.1,2-1.9,2.8c1.8,0.5,2.4,2.1,2.4,3
		C463.3,262.8,461.2,263.8,459,263.8z M460.1,243.5l-9.6-14.4v14.4h-7.7V213h7.7v13.1l9.4-13.1h9l-10.5,14.5l11.2,16H460.1z
		 M483.1,263.8h-7.7v-12.2h7.6v1.2h-6.3v4.2h5.8v1.2h-5.8v4.4h6.4V263.8z M493.1,243.5h-21.4V213H493v6.8h-13.7v5h12.4v6.6h-12.4
		v5.2h13.8L493.1,243.5L493.1,243.5z M500.4,264c-3.4,0-6.1-2.5-6.1-6.2s2.8-6.3,6.1-6.3s5,2.3,5.4,4l-1.2,0.4
		c-0.2-0.8-1.2-3.2-4.2-3.2c-2.6,0-4.8,2-4.8,5c0,2.9,2,5,4.8,5c2.9,0,3.9-2.2,4.3-3.3l1.2,0.4C505.5,261.4,503.9,264,500.4,264z
		 M501.6,213h8.7l6.1,10.9l6.2-10.9h8.5l-10.9,18.7v11.8h-7.7v-11.7L501.6,213z M523.1,264c-3.5,0-6.1-2.7-6.1-6.2s2.6-6.3,6.1-6.3
		s6.1,2.7,6.1,6.2S526.6,264,523.1,264z M554.1,263.8h-1.3v-10.4l0,0l-4.5,10.4h-1.1l-4.5-10.4l0,0v10.4h-1.3v-12.2h1.8l4.6,10.4
		l4.5-10.4h1.8V263.8z M545.6,243.9c-8.8,0-15.9-6.8-15.9-15.7c0-8.8,7.2-15.7,16-15.7s15.8,6.8,15.8,15.6
		C561.5,237,554.4,243.9,545.6,243.9z M574.8,263.8h-7.7v-12.2h7.6v1.2h-6.3v4.2h5.8v1.2h-5.8v4.4h6.4V263.8z M565,231.4V213h7.7
		v18.3c0,3,1.5,5.4,5,5.4c3.8,0,5-2.7,5-5.3V213h7.7v18.3c0,7.7-4.1,12.6-12.8,12.6C568.8,243.9,565,238.7,565,231.4z M591.7,263.8
		h-4.5v-12.2h4.4c2.2,0,3.9,1.1,3.9,3.1c0,0.6-0.1,2-1.9,2.8c1.8,0.5,2.4,2.1,2.4,3C596,262.8,593.9,263.8,591.7,263.8z
		 M615.8,263.8h-7.7v-12.2h7.6v1.2h-6.3v4.2h5.8v1.2h-5.8v4.4h6.4V263.8z M612,243.5l-5.6-10.7h-3.2v10.7h-7.7V213H608
		c6.7,0,11.4,3.2,11.4,9.8c0,4.5-2.2,7.3-5.6,8.7l6.3,12H612z M636.2,252.8h-4.1v11h-1.3v-11h-4.1v-1.2h9.4L636.2,252.8L636.2,252.8
		z M655.9,252.8h-4.1v11h-1.3v-11h-4.1v-1.2h9.4L655.9,252.8L655.9,252.8z M659.2,243.5v-19.4h-0.1l-7.4,19.4H647l-7.5-19.1h-0.1
		v19.1H632V213h9.9l7.5,18.7l7.2-18.7h10.2v30.5H659.2z M675.3,263.8h-7.7v-12.2h7.6v1.2h-6.3v4.2h5.8v1.2h-5.8v4.4h6.4V263.8z
		 M694.9,263.8l-3.6-4.9h-2.5v4.9h-1.3v-12.2h4.2c3,0,4.3,1.7,4.3,3.6c0,2.1-1.5,3.2-3.3,3.5l3.8,5.1L694.9,263.8L694.9,263.8z
		 M686.4,243.9c-8.8,0-15.9-6.8-15.9-15.7c0-8.8,7.2-15.7,16-15.7s15.8,6.8,15.8,15.6C702.3,237,695.2,243.9,686.4,243.9z
		 M721.2,243.5h-8.1L702.2,213h8.5l6.6,20.1L724,213h8.3L721.2,243.5z M756.3,243.5h-21.4V213h21.3v6.8h-13.7v5H755v6.6h-12.4v5.2
		h13.8L756.3,243.5L756.3,243.5z"/>
	<path d="M694.7,255.2c0-1.2-0.7-2.4-3.1-2.4h-2.9v4.9h2.8C693.9,257.7,694.7,256.5,694.7,255.2z"/>
	<path d="M686.4,219.7c-4.7,0-8.1,4-8.1,8.5s3.4,8.5,8.1,8.5s8.1-4,8.1-8.5S691,219.7,686.4,219.7z"/>
</g>
<g>
	<rect x="147.6" y="165.7" width="792.6" height="212.3"/>
	<g>
		<g>
			<path class="st1" d="M361.4,241.6v-0.1c0-11.7,9.2-20.8,21.6-20.8c7,0,12,2.2,16.3,5.8l-6.5,7.8c-2.9-2.4-5.7-3.8-9.7-3.8
				c-5.8,0-10.3,4.9-10.3,11v0.1c0,6.5,4.5,11.1,10.9,11.1c2.7,0,4.8-0.6,6.4-1.7v-4.9h-7.9v-8.1h18.4v18
				c-4.2,3.5-10.1,6.2-17.4,6.2C370.8,262.4,361.4,253.8,361.4,241.6z"/>
			<path class="st1" d="M406.8,221.5h32.2v9.4h-21.2v6.1h19.2v8.8h-19.2v6.4h21.5v9.4h-32.5V221.5z"/>
			<path class="st1" d="M454.8,231.2h-12v-9.7H478v9.7h-12v30.4h-11.1V231.2z"/>
			<path class="st1" d="M476,250.4h11.3v11.2H476V250.4z"/>
			<path class="st1" d="M509.2,221.5h32.1v9.7h-21v6.8h19v9.2h-19v14.3h-11.1V221.5z"/>
			<path class="st1" d="M546.6,221.5h11.2v40.1h-11.2V221.5z"/>
			<path class="st1" d="M574.9,231.2h-12v-9.7H598v9.7h-12v30.4h-11.1V231.2z"/>
			<path class="st1" d="M596,250.4h11.3v11.2H596V250.4z"/>
			<path class="st1" d="M629.2,221.5h10.4l16.5,21.2v-21.2h11v40.1h-9.7l-17.1-22v22h-11V221.5z"/>
			<path class="st1" d="M672.8,241.6v-0.1c0-11.5,9.3-20.8,21.6-20.8c12.4,0,21.5,9.2,21.5,20.7v0.1c0,11.5-9.3,20.8-21.6,20.8
				C682,262.4,672.8,253.1,672.8,241.6z M704.7,241.6v-0.1c0-5.8-4.2-10.8-10.3-10.8c-6.1,0-10.1,4.9-10.1,10.7v0.1
				c0,5.8,4.2,10.8,10.3,10.8C700.6,252.3,704.7,247.4,704.7,241.6z"/>
			<path class="st1" d="M716.8,221.5h11.7l7,23.2l7.7-23.3h9.6l7.7,23.3l7-23.2h11.5l-13.4,40.4H756l-8.1-23.1l-8,23.1h-9.7
				L716.8,221.5z"/>
			<path class="st1" d="M776.6,250.4H788v11.2h-11.3V250.4z"/>
		</g>
		<g>
			<path class="st1" d="M413.7,283.6H411v-1h2.9l0.9-5.2h-2.9v-1h3.1l0.7-4.1h1.1l-0.7,4.1h4.6l0.7-4.1h1.1l-0.7,4.1h2.7v1h-2.8
				l-0.9,5.2h2.9v1h-3l-0.7,4.1h-1.1l0.7-4.1h-4.6l-0.7,4.1H413L413.7,283.6z M419.5,282.6l0.9-5.2h-4.6l-0.9,5.2H419.5z"/>
			<path class="st1" d="M428.8,272.3h6.4c1.7,0,3.2,0.5,4,1.4c0.6,0.6,1,1.5,1,2.4v0c0,2.1-1.4,3.2-2.6,3.7c1.9,0.5,3.5,1.6,3.5,3.7
				v0c0,2.6-2.2,4.2-5.6,4.2h-6.7V272.3z M435.1,279.4c2.3,0,4-1.1,4-3.2v0c0-1.7-1.4-2.9-3.9-2.9H430v6.1H435.1z M435.6,286.7
				c2.7,0,4.3-1.2,4.3-3.2v0c0-1.9-1.7-3-4.7-3H430v6.2H435.6z"/>
			<path class="st1" d="M445.9,272.3h11v1.1h-9.9v6.1h8.9v1.1h-8.9v6.2h10v1.1h-11.1V272.3z"/>
			<path class="st1" d="M466.2,273.3h-5.4v-1.1h12v1.1h-5.4v14.4h-1.2V273.3z"/>
			<path class="st1" d="M481.6,273.3h-5.4v-1.1h12v1.1h-5.4v14.4h-1.2V273.3z"/>
			<path class="st1" d="M492.8,272.3h11v1.1h-9.9v6.1h8.9v1.1h-8.9v6.2h10v1.1h-11.1V272.3z"/>
			<path class="st1" d="M508.7,272.3h6.5c1.9,0,3.4,0.6,4.4,1.5c0.7,0.7,1.2,1.8,1.2,2.9v0c0,2.6-1.9,4.1-4.5,4.4l5.1,6.6h-1.5
				l-4.9-6.4h0h-5v6.4h-1.2V272.3z M515.1,280.3c2.6,0,4.5-1.3,4.5-3.5v0c0-2.1-1.6-3.4-4.5-3.4h-5.3v7H515.1z"/>
			<path class="st1" d="M529.9,273.3h-5.4v-1.1h12v1.1h-5.4v14.4h-1.2V273.3z"/>
			<path class="st1" d="M541.1,272.3h1.2v7.2h9.9v-7.2h1.2v15.5h-1.2v-7.3h-9.9v7.3h-1.2V272.3z"/>
			<path class="st1" d="M564.9,272.2h1.1l7.2,15.6H572l-2-4.3h-9.1l-2,4.3h-1.2L564.9,272.2z M569.5,282.4l-4.1-9l-4.1,9H569.5z"/>
			<path class="st1" d="M577.6,272.3h1.1l10.7,13.5v-13.5h1.1v15.5h-0.9L578.7,274v13.8h-1.1V272.3z"/>
			<path class="st1" d="M601.3,281.7l-6.6-9.4h1.4l5.8,8.3l5.8-8.3h1.4l-6.6,9.3v6.2h-1.2V281.7z"/>
			<path class="st1" d="M613.2,272.3h11v1.1h-9.9v6.1h8.9v1.1h-8.9v6.2h10v1.1h-11.1V272.3z"/>
			<path class="st1" d="M628.2,285.5l0.8-0.9c1.7,1.6,3.3,2.3,5.6,2.3c2.3,0,3.9-1.3,3.9-3.1v0c0-1.6-0.9-2.6-4.4-3.3
				c-3.7-0.8-5.2-2-5.2-4.4v0c0-2.3,2.1-4.1,5-4.1c2.3,0,3.7,0.6,5.3,1.9l-0.7,0.9c-1.5-1.3-2.9-1.7-4.6-1.7c-2.3,0-3.8,1.3-3.8,2.9
				v0c0,1.6,0.8,2.6,4.5,3.4c3.6,0.7,5.1,2,5.1,4.3v0c0,2.5-2.1,4.2-5.1,4.2C631.9,288,630,287.2,628.2,285.5z"/>
			<path class="st1" d="M648.4,273.3H643v-1.1h12v1.1h-5.4v14.4h-1.2V273.3z"/>
			<path class="st1" d="M659.6,272.3h11v1.1h-9.9v6.1h8.9v1.1h-8.9v6.2h10v1.1h-11.1V272.3z"/>
			<path class="st1" d="M675.5,272.3h6.5c1.9,0,3.4,0.6,4.4,1.5c0.7,0.7,1.2,1.8,1.2,2.9v0c0,2.6-1.9,4.1-4.5,4.4l5.1,6.6h-1.5
				l-4.9-6.4h0h-5v6.4h-1.2V272.3z M681.9,280.3c2.6,0,4.5-1.3,4.5-3.5v0c0-2.1-1.6-3.4-4.5-3.4h-5.3v7H681.9z"/>
			<path class="st1" d="M692.6,272.3h5.2c4.9,0,8.2,3.3,8.2,7.7v0c0,4.4-3.4,7.8-8.2,7.8h-5.2V272.3z M697.8,286.7
				c4.3,0,7-2.9,7-6.6v0c0-3.7-2.7-6.7-7-6.7h-4v13.4H697.8z"/>
			<path class="st1" d="M716,272.2h1.1l7.2,15.6H723l-2-4.3h-9.1l-2,4.3h-1.2L716,272.2z M720.6,282.4l-4.1-9l-4.1,9H720.6z"/>
			<path class="st1" d="M731.3,281.7l-6.6-9.4h1.4l5.8,8.3l5.8-8.3h1.4l-6.6,9.3v6.2h-1.2V281.7z"/>
		</g>
	</g>
</g>
</svg>
