<?xml version="1.0" encoding="utf-8"?>
<!-- Generator: Adobe Illustrator 19.0.0, SVG Export Plug-In . SVG Version: 6.00 Build 0)  -->
<svg version="1.1" id="Layer_1" xmlns="http://www.w3.org/2000/svg" xmlns:xlink="http://www.w3.org/1999/xlink" x="0px" y="0px"
	 viewBox="1604 -1694 4000 4000" style="enable-background:new 1604 -1694 4000 4000;" xml:space="preserve">
<style type="text/css">
	.st0{display:none;}
	.st1{display:inline;opacity:0.8;enable-background:new    ;}
	.st2{fill:#FFFFFF;}
</style>
<g id="Layer_1_1_" class="st0">
	<title>Cover</title>
	<path class="st1" d="M5604-1694v4000H1604v-4000H5604z M3403,279.7V238h29.3c13.2,0,21.9,8.5,21.9,20.9c0,11.8-7.8,18.3-15.9,19.6
		l16.4,26.2h-13.6l-14.7-24.9h-9.2v-0.1H3403z M3922,238h17.6c13.2,0,21.9,8.5,21.9,20.9c0,11.8-7.8,18.3-15.9,19.6l16.4,26.2h-13.6
		l-14.7-24.9H3922v24.9l0,0V238L3922,238z M3795,272c0-0.2,0-0.3,0-0.5c0-19.9,14.1-34.5,34.1-34.5c19.9,0,34.1,14.6,34.1,34.5
		S3849,306,3829.1,306h-0.1v-10.4h0.1c13.4,0,22.1-10.4,22.1-24.1c0-13.8-8.7-24.1-22.1-24.1c-13.5,0-22.1,10.3-22.1,24.1
		c0,0.2,0,0.3,0,0.5H3795L3795,272z M3559.8,268.7v9.6c0,16.5-9.5,27.6-28.9,27.6c-19.3,0-28.9-11.1-28.9-27.6V238h11.9v40
		c0,10.6,5.9,17.5,17,17.5c11.1,0,17-6.9,17-17.5v-9.3H3559.8z M3257.7,304.7V238H3246v66.7H3257.7z M4032.2,306
		c17.9,0,25.8-9.6,25.8-20.7c0-24.8-38.8-17.1-38.8-29.6c0-4.9,4.4-8.3,11.2-8.3c7,0,14.1,2.4,19.4,7.7l6.6-8.7
		c-6.1-6-14.6-9.4-24.9-9.4c-14.7,0-24.3,8.5-24.3,19.6c0,24.5,38.8,15.8,38.8,29.8c0,4.5-3.7,9.2-13.3,9.2
		c-9.3,0-16.6-4.4-21.1-9.3l-6.6,9.1C4011,301.6,4019.9,306,4032.2,306L4032.2,306z M3330.2,306c17.9,0,25.8-9.6,25.8-20.7
		c0-24.8-38.8-17.1-38.8-29.6c0-4.9,4.4-8.3,11.2-8.3c7,0,14.1,2.4,19.4,7.7l6.6-8.7c-6.1-6-14.6-9.4-24.9-9.4
		c-14.7,0-24.3,8.5-24.3,19.6c0,24.5,38.8,15.8,38.8,29.8c0,4.5-3.7,9.2-13.3,9.2c-9.3,0-16.6-4.4-21.1-9.3l-6.6,9.1
		C3309,301.6,3317.9,306,3330.2,306L3330.2,306z M3621.7,304.7v-25h17.7c13.9,0,21.7-9.5,21.7-20.8c0-11.4-7.7-20.9-21.7-20.9H3610
		v66.7L3621.7,304.7L3621.7,304.7z M3637.1,270.1H3621V249h16.1c6.6,0,11.3,4.2,11.3,10.6C3648.4,265.9,3643.7,270.1,3637.1,270.1z
		 M3733.9,304.7v-56.4h20.2V238H3702v10.3h20.2v56.4L3733.9,304.7L3733.9,304.7z M3938.1,269.2H3922V248h16.1
		c6.6,0,11.4,4.1,11.4,10.5C3949.5,265,3944.7,269.2,3938.1,269.2z M3151,238h12.3c20.9,0,34.9,13.8,34.9,33.3
		c0,19.7-14,33.4-34.8,33.4H3151v-10.3h12.3c14.5,0,22.9-10.4,22.9-23.1c0-12.8-8-23-22.8-23H3151V238z M3431.1,270.2H3415V249h16.1
		c6.6,0,11.4,4.1,11.4,10.5C3442.5,266,3437.7,270.2,3431.1,270.2z M3508.1,196c8.4,0,14.1-5.6,14.1-13.5s-5.7-13.5-14.1-13.5h-10
		v27H3508.1L3508.1,196z M3710.4,194.4v1.6h-4.6l-14.1-19.3V196h-4.7v-27h4.9l12.3,16.7L3710.4,194.4z M3622.7,181.4V169h-4.7v12.4
		H3622.7L3622.7,181.4z M3545.8,184.3L3545.8,184.3v7.5h13.8v4.2H3541v-27h18.5v4.2h-13.8v7l0,0v4.1H3545.8z M3508.3,192.7h-5.3V174
		h5.3c6,0,9.2,4.1,9.2,9.3C3517.6,188.5,3514.2,192.7,3508.3,192.7L3508.3,192.7z M3656.2,197c4.7,0,8.5-2,11.1-4.9V182h-12.8v4.2
		h8.1v4.2c-1.2,1.2-3.6,2.4-6.4,2.4c-5.3,0-9.3-4.1-9.3-9.8c0-5.7,4-9.8,9.3-9.8c3,0,5.5,1.6,7,3.6l3.8-2.2
		c-2.1-3.1-5.6-5.6-10.9-5.6c-7.9,0-14.2,5.5-14.2,14C3642,191.5,3648.3,197,3656.2,197L3656.2,197z M3589,197
		c7.2,0,10.4-3.9,10.4-8.4c0-10.1-15.7-6.9-15.7-12c0-2,1.8-3.4,4.5-3.4c2.8,0,5.7,1,7.9,3.1l2.7-3.5c-2.5-2.4-5.9-3.8-10.1-3.8
		c-5.9,0-9.8,3.4-9.8,7.9c0,9.9,15.7,6.4,15.7,12.1c0,1.8-1.5,3.7-5.4,3.7c-3.8,0-6.7-1.8-8.5-3.8l-2.7,3.7
		C3580.5,195.2,3584.1,196.9,3589,197L3589,197z"/>
</g>
<path d="M1600.9-1694v4000H5604v-4000H1600.9z M3214.3,250.1v-45.8h-0.1l-17.6,45.8h-11.2l-17.7-45.3h-0.2v45.3h-17.4V178h23.3
	l17.7,44.2L3208,178h24.1v72.1H3214.3z M3260.8,236.9l-4.8,13.3h-19l27.7-72.1h20.4l27.7,72.1h-19.2l-4.9-13.3H3260.8z
	 M3316.9,279.3h-5.8l-1.9,8.7h5.2v2.4h-5.8l-1.8,8h-2.7l1.7-8h-8.8l-1.7,8h-2.7l1.7-8h-5.2V288h5.8l1.9-8.7h-5.2v-2.4h5.8l1.6-7.4
	h2.7l-1.6,7.4h8.8l1.6-7.4h2.7l-1.6,7.4h5.2v2.4H3316.9z M3355.9,298.4h-10.7v-28.8h10.4c5.2,0,9.3,2.5,9.3,7.2
	c0,1.3-0.3,4.8-4.4,6.6c4.3,1.1,5.7,4.9,5.7,7.1C3366.1,296,3361.3,298.4,3355.9,298.4z M3358.7,250.1l-22.8-34.1v34.1h-18.3V178
	h18.3v30.9l22.2-30.9h21.4l-24.8,34.2l26.5,37.8L3358.7,250.1L3358.7,250.1z M3436.7,250.1h-50.6V178h50.4v16.1h-32.4v11.8h29.4
	v15.5h-29.4v12.4h32.6V250.1z M3453.9,298.7c-8,0-14.4-5.9-14.4-14.6c0-8.8,6.6-14.8,14.5-14.8s11.9,5.5,12.9,9.5l-2.9,1
	c-0.5-1.9-2.9-7.6-10-7.6c-6.1,0-11.3,4.8-11.3,11.8c0,6.8,4.8,11.9,11.3,11.9c6.9,0,9.3-5.3,10.1-7.7l2.9,1
	C3466,292.7,3462.2,298.7,3453.9,298.7z M3456.9,178.1h20.5l14.5,25.8l14.6-25.8h20l-25.7,44.3v27.8h-18.2v-27.8L3456.9,178.1z
	 M3507.7,298.7c-8.3,0-14.5-6.4-14.5-14.6c0-8.3,6.2-14.8,14.5-14.8s14.4,6.4,14.4,14.6C3522.2,292.1,3516,298.7,3507.7,298.7z
	 M3581.1,298.4h-3v-24.7l0,0l-10.7,24.7h-2.7l-10.6-24.5l0,0v24.5h-3v-28.8h4.3l10.8,24.7l10.7-24.7h4.3v28.8H3581.1z M3561,251.2
	c-20.8,0-37.7-16.2-37.7-37.1s17.1-37.2,37.8-37.2c20.8,0,37.5,16.1,37.5,37C3598.7,234.8,3581.8,251.2,3561,251.2z M3630.1,298.4
	H3612v-28.8h18v2.8h-15v10h13.7v2.8H3615v10.5h15.2L3630.1,298.4L3630.1,298.4z M3606.9,221.7v-43.6h18.3v43.3
	c0,7.2,3.5,12.9,11.7,12.9c9.1,0,11.7-6.3,11.7-12.4v-43.7h18.3v43.4c0,18.3-9.8,29.7-30.2,29.7
	C3615.8,251.2,3606.9,238.8,3606.9,221.7z M3669.9,298.4h-10.7v-28.8h10.4c5.2,0,9.3,2.5,9.3,7.2c0,1.3-0.3,4.8-4.4,6.6
	c4.3,1.1,5.7,4.9,5.7,7.1C3680.1,296,3675.4,298.4,3669.9,298.4z M3727.2,298.4H3709v-28.8h18v2.8h-15v10h13.7v2.8H3712v10.5h15.2
	V298.4z M3718.2,250.1l-13.3-25.3h-7.5v25.3h-18.2V178h29.6c15.9,0,27,7.5,27,23.2c0,10.6-5.3,17.2-13.3,20.5l14.9,28.4H3718.2z
	 M3775.3,272.4h-9.6v26h-3v-26h-9.6v-2.8h22.3L3775.3,272.4L3775.3,272.4z M3822,272.4h-9.6v26h-3v-26h-9.6v-2.8h22.3L3822,272.4
	L3822,272.4z M3829.7,250.1v-45.8h-0.1l-17.6,45.8h-11.2l-17.7-45.3h-0.2v45.3h-17.4V178h23.3l17.7,44.2l16.9-44.2h24.1v72.1H3829.7
	z M3867.8,298.4h-18.2v-28.8h18v2.8h-15v10h13.7v2.8h-13.7v10.5h15.2V298.4z M3914.3,298.4l-8.5-11.7h-5.9v11.7h-3v-28.8h10
	c7,0,10.1,3.9,10.1,8.4c0,4.9-3.6,7.7-7.9,8.2l8.9,12.2L3914.3,298.4L3914.3,298.4z M3894.1,251.2c-20.8,0-37.7-16.2-37.7-37.1
	s17.1-37.2,37.8-37.2c20.8,0,37.5,16.1,37.5,37C3931.8,234.8,3914.9,251.2,3894.1,251.2z M3976.6,250.1h-19.1l-25.9-72.1h20
	l15.7,47.7L3983,178h19.6L3976.6,250.1z M4059.6,250.1H4009V178h50.4v16.1H4027v11.8h29.4v15.5H4027v12.4h32.6V250.1z"/>
<path d="M3561,193.8c-11,0-19.1,9.4-19.1,20.1s8.1,20.2,19.1,20.2s19.1-9.5,19.1-20.2C3580.1,203.3,3572,193.8,3561,193.8z"/>
<path d="M3675.8,277.1c0-3.5-3.1-4.8-6.5-4.8h-7.1v10h6.9C3673.8,282.4,3675.8,280,3675.8,277.1z"/>
<path d="M3707.4,193.8h-9.9v15.6h10c6.6,0,10.2-2.7,10.2-7.4C3717.6,197.4,3714.9,193.8,3707.4,193.8z"/>
<path d="M3669.4,285h-7.2v10.6h7.8c3.1,0,7-1.3,7-5.4S3672.8,285,3669.4,285z"/>
<path d="M3361.7,277.1c0-3.5-3.1-4.8-6.5-4.8h-7.1v10h6.9C3359.8,282.4,3361.7,280,3361.7,277.1z"/>
<path d="M3355.4,285h-7.2v10.6h7.8c3.1,0,7-1.3,7-5.4S3358.7,285,3355.4,285z"/>
<path d="M3894.2,193.8c-11,0-19.1,9.4-19.1,20.1s8.1,20.2,19.1,20.2s19.1-9.5,19.1-20.2C3913.3,203.3,3905.1,193.8,3894.2,193.8z"/>
<polygon points="3266.1,221.5 3283.4,221.5 3274.7,198.5 "/>
<path d="M3913.9,278.1c0-2.8-1.8-5.7-7.3-5.7h-6.8V284h6.7C3911.8,284,3913.9,281,3913.9,278.1z"/>
<polygon points="3297.7,288 3306.5,288 3308.4,279.3 3299.6,279.3 "/>
<rect x="2807.7" y="61.8" width="1467.1" height="393"/>
<g>
	<g>
		<path class="st2" d="M3203.6,202.4v-0.2c0-21.6,17-38.6,40-38.6c13,0,22.3,4,30.1,10.8l-12.1,14.5c-5.3-4.5-10.6-7-17.9-7
			c-10.7,0-19,9-19,20.4v0.2c0,12,8.4,20.6,20.1,20.6c5,0,8.8-1.1,11.9-3.1v-9H3242v-15.1h34.1v33.4c-7.8,6.5-18.8,11.4-32.2,11.4
			C3220.8,240.7,3203.6,224.8,3203.6,202.4z"/>
		<path class="st2" d="M3287.6,165.1h59.7v17.5H3308v11.2h35.6V210H3308v11.8h39.9v17.5h-60.2V165.1z"/>
		<path class="st2" d="M3376.4,183.1h-22.3v-18h65.1v18H3397v56.2h-20.6V183.1z"/>
		<path class="st2" d="M3415.7,218.6h21v20.7h-21V218.6z"/>
		<path class="st2" d="M3477.1,165.1h59.4v18h-38.8v12.6h35.1v17.1h-35.1v26.5h-20.6V165.1z"/>
		<path class="st2" d="M3546.2,165.1h20.7v74.2h-20.7V165.1z"/>
		<path class="st2" d="M3598.6,183.1h-22.3v-18h65.1v18h-22.3v56.2h-20.6V183.1z"/>
		<path class="st2" d="M3637.8,218.6h21v20.7h-21V218.6z"/>
		<path class="st2" d="M3699.3,165.1h19.2l30.5,39.2v-39.2h20.4v74.2h-18l-31.7-40.7v40.7h-20.4V165.1z"/>
		<path class="st2" d="M3780,202.4v-0.2c0-21.3,17.2-38.6,40.1-38.6c22.9,0,39.9,17.1,39.9,38.4v0.2c0,21.3-17.2,38.6-40.1,38.6
			C3796.9,240.7,3780,223.7,3780,202.4z M3838.9,202.4v-0.2c0-10.7-7.7-20-19.1-20c-11.2,0-18.8,9.1-18.8,19.8v0.2
			c0,10.7,7.7,20,19,20C3831.4,222.2,3838.9,213.1,3838.9,202.4z"/>
		<path class="st2" d="M3861.4,165.1h21.7L3896,208l14.3-43.1h17.7l14.3,43.1l12.9-42.9h21.3l-24.8,74.7h-17.9l-14.9-42.7
			l-14.8,42.7h-17.9L3861.4,165.1z"/>
		<path class="st2" d="M3972.1,218.6h21v20.7h-21V218.6z"/>
	</g>
	<g>
		<path class="st2" d="M3300.2,280.2h-5v-1.9h5.3l1.7-9.7h-5.3v-1.9h5.7l1.3-7.5h2l-1.3,7.5h8.5l1.3-7.5h2l-1.3,7.5h4.9v1.9h-5.2
			l-1.7,9.7h5.3v1.9h-5.6l-1.3,7.7h-2l1.3-7.7h-8.5l-1.3,7.7h-2L3300.2,280.2z M3311,278.2l1.7-9.7h-8.5l-1.7,9.7H3311z"/>
		<path class="st2" d="M3328.3,259.1h11.8c3.2,0,5.9,0.9,7.5,2.5c1.2,1.2,1.8,2.7,1.8,4.5v0.1c0,3.9-2.5,5.9-4.9,6.8
			c3.4,0.9,6.5,2.9,6.5,6.8v0.1c0,4.8-4.1,7.8-10.3,7.8h-12.5V259.1z M3339.9,272.4c4.3,0,7.4-2.1,7.4-5.9v-0.1
			c0-3.2-2.6-5.3-7.2-5.3h-9.7v11.3H3339.9z M3340.8,285.8c4.9,0,8-2.3,8-5.9v-0.1c0-3.5-3.1-5.6-8.7-5.6h-9.7v11.5H3340.8z"/>
		<path class="st2" d="M3359.9,259.1h20.4v2h-18.3v11.3h16.4v2h-16.4v11.5h18.5v2h-20.6V259.1z"/>
		<path class="st2" d="M3397.4,261.1h-10v-2h22.1v2h-10v26.7h-2.1V261.1z"/>
		<path class="st2" d="M3426,261.1h-10v-2h22.1v2h-10v26.7h-2.1V261.1z"/>
		<path class="st2" d="M3446.7,259.1h20.4v2h-18.3v11.3h16.4v2h-16.4v11.5h18.5v2h-20.6V259.1z"/>
		<path class="st2" d="M3476.2,259.1h12.1c3.5,0,6.4,1.1,8.1,2.8c1.4,1.4,2.2,3.3,2.2,5.3v0.1c0,4.8-3.6,7.5-8.4,8.2l9.5,12.3h-2.7
			l-9.1-11.9h-0.1h-9.3v11.9h-2.1V259.1z M3488,274c4.8,0,8.4-2.4,8.4-6.6v-0.1c0-3.9-3-6.3-8.2-6.3h-9.8V274H3488z"/>
		<path class="st2" d="M3515.5,261.1h-10v-2h22.1v2h-10v26.7h-2.1V261.1z"/>
		<path class="st2" d="M3536.1,259.1h2.1v13.3h18.4v-13.3h2.1v28.7h-2.1v-13.4h-18.4v13.4h-2.1V259.1z"/>
		<path class="st2" d="M3580.2,258.9h2.1l13.4,28.9h-2.3l-3.6-8h-16.9l-3.6,8h-2.2L3580.2,258.9z M3588.8,277.9l-7.5-16.6l-7.6,16.6
			H3588.8z"/>
		<path class="st2" d="M3603.8,259.1h2l19.8,25v-25h2v28.7h-1.6l-20.2-25.5v25.5h-2V259.1z"/>
		<path class="st2" d="M3647.6,276.5l-12.3-17.3h2.7l10.7,15.4l10.8-15.4h2.5l-12.3,17.3v11.4h-2.1V276.5z"/>
		<path class="st2" d="M3669.6,259.1h20.4v2h-18.3v11.3h16.4v2h-16.4v11.5h18.5v2h-20.6V259.1z"/>
		<path class="st2" d="M3697.3,283.6l1.4-1.6c3.2,2.9,6.1,4.3,10.3,4.3c4.3,0,7.3-2.4,7.3-5.7v-0.1c0-3-1.6-4.8-8.1-6.1
			c-6.9-1.4-9.7-3.7-9.7-8.1v-0.1c0-4.3,3.9-7.5,9.2-7.5c4.2,0,6.9,1.1,9.8,3.5l-1.4,1.7c-2.7-2.3-5.4-3.2-8.6-3.2
			c-4.2,0-7,2.4-7,5.4v0.1c0,3,1.6,4.9,8.4,6.3c6.6,1.4,9.4,3.7,9.4,7.9v0.1c0,4.6-4,7.8-9.5,7.8
			C3704.3,288.2,3700.7,286.7,3697.3,283.6z"/>
		<path class="st2" d="M3734.8,261.1h-10v-2h22.1v2h-10v26.7h-2.1V261.1z"/>
		<path class="st2" d="M3755.4,259.1h20.4v2h-18.3v11.3h16.4v2h-16.4v11.5h18.5v2h-20.6V259.1z"/>
		<path class="st2" d="M3784.9,259.1h12.1c3.5,0,6.4,1.1,8.1,2.8c1.4,1.4,2.2,3.3,2.2,5.3v0.1c0,4.8-3.6,7.5-8.4,8.2l9.5,12.3h-2.7
			l-9.1-11.9h-0.1h-9.3v11.9h-2.1V259.1z M3796.8,274c4.8,0,8.4-2.4,8.4-6.6v-0.1c0-3.9-3-6.3-8.2-6.3h-9.8V274H3796.8z"/>
		<path class="st2" d="M3816.6,259.1h9.6c9,0,15.3,6.2,15.3,14.3v0.1c0,8.1-6.2,14.4-15.3,14.4h-9.6V259.1z M3826.2,285.8
			c8,0,13-5.5,13-12.3v-0.1c0-6.8-5-12.4-13-12.4h-7.4v24.8H3826.2z"/>
		<path class="st2" d="M3859.8,258.9h2l13.4,28.9h-2.3l-3.6-8h-16.9l-3.6,8h-2.2L3859.8,258.9z M3868.3,277.9l-7.5-16.6l-7.6,16.6
			H3868.3z"/>
		<path class="st2" d="M3888.2,276.5l-12.3-17.3h2.7l10.7,15.4l10.8-15.4h2.5l-12.3,17.3v11.4h-2.1V276.5z"/>
	</g>
</g>
</svg>
