<?xml version="1.0" encoding="utf-8"?>
<!-- Generator: Adobe Illustrator 20.1.0, SVG Export Plug-In . SVG Version: 6.00 Build 0)  -->
<svg version="1.1" id="Layer_1" xmlns="http://www.w3.org/2000/svg" xmlns:xlink="http://www.w3.org/1999/xlink" x="0px" y="0px"
	 viewBox="0 0 60 60" style="enable-background:new 0 0 60 60;" xml:space="preserve">
<style type="text/css">
	.st0{fill:#FFFFFF;}
</style>
<polyline points="0,0 60,0 60,60 "/>
<g>
	<path class="st0" d="M25.2,5.2l1,1l-1.3,3l3-1.4l1,1l-3.5,3.5l-0.8-0.8l2.4-2.4l-3.4,1.5l-0.3-0.3l1.5-3.4l-2.4,2.4l-0.7-0.7
		L25.2,5.2z"/>
	<path class="st0" d="M27.2,11.6L27.2,11.6c0.8-0.8,1.9-0.8,2.7,0c0.8,0.8,0.8,1.8,0,2.6l0,0c-0.8,0.8-1.9,0.7-2.6,0
		C26.4,13.4,26.4,12.3,27.2,11.6z M29.1,13.5L29.1,13.5c0.5-0.5,0.6-1,0.2-1.4c-0.4-0.4-0.9-0.3-1.4,0.1l0,0c-0.5,0.5-0.6,1-0.2,1.4
		C28.1,14,28.7,14,29.1,13.5z"/>
	<path class="st0" d="M29.7,15l0.7,0.7c-0.2,0.3-0.2,0.5,0.1,0.8c0.3,0.3,0.5,0.3,0.7,0.1c0.2-0.2,0.1-0.4-0.2-0.8
		c-0.6-0.8-0.6-1.2-0.1-1.7c0.5-0.5,1.3-0.3,1.8,0.2c0.6,0.6,0.8,1.2,0.3,1.8l-0.6-0.6c0.2-0.2,0.2-0.5-0.1-0.7
		c-0.2-0.2-0.5-0.3-0.6-0.1c-0.2,0.2-0.1,0.3,0.2,0.8c0.5,0.7,0.7,1.2,0.2,1.8c-0.5,0.5-1.2,0.4-1.9-0.2
		C29.2,16.2,29.1,15.5,29.7,15z"/>
	<path class="st0" d="M32.3,17.7l1.3-1.3l-0.3-0.3l0.5-0.5l0.3,0.3l0.5-0.5l0.7,0.7l-0.5,0.5l0.5,0.5l-0.5,0.5l-0.5-0.5l-1.2,1.2
		c-0.2,0.2-0.2,0.4,0,0.6c0.1,0.1,0.2,0.2,0.3,0.2l-0.5,0.5c-0.1-0.1-0.3-0.2-0.5-0.4C31.8,18.8,31.8,18.2,32.3,17.7z"/>
	<path class="st0" d="M36.9,18.7l0.7,0.7l-0.4,0.4c0.4-0.1,0.9,0,1.3,0.4c0.6,0.6,0.6,1.6-0.2,2.4l0,0c-0.8,0.8-1.8,0.8-2.4,0.2
		c-0.4-0.4-0.5-0.9-0.4-1.2l-1.2,1.2l-0.7-0.7L36.9,18.7z M37.5,21.9L37.5,21.9c0.6-0.6,0.6-1.1,0.2-1.4c-0.4-0.4-0.9-0.4-1.4,0.1
		l0,0c-0.5,0.5-0.5,1-0.1,1.4C36.6,22.5,37,22.4,37.5,21.9z"/>
	<path class="st0" d="M38.6,23L38.6,23c0.8-0.8,1.9-0.8,2.7,0s0.8,1.8,0,2.6l0,0c-0.8,0.8-1.9,0.7-2.6,0
		C37.8,24.8,37.8,23.7,38.6,23z M40.5,24.9L40.5,24.9c0.5-0.5,0.6-1,0.2-1.4c-0.4-0.4-0.9-0.3-1.4,0.1l0,0c-0.5,0.5-0.6,1-0.2,1.4
		C39.5,25.4,40,25.4,40.5,24.9z"/>
	<path class="st0" d="M43,24.8l0.7,0.7l-0.4,0.4c0.4-0.1,0.9,0,1.3,0.4c0.6,0.6,0.6,1.6-0.2,2.4l0,0c-0.8,0.8-1.8,0.8-2.4,0.2
		c-0.4-0.4-0.5-0.9-0.4-1.3l-1.2,1.2l-0.7-0.7L43,24.8z M43.6,28L43.6,28c0.6-0.6,0.6-1.1,0.2-1.4c-0.4-0.4-0.9-0.4-1.4,0.1l0,0
		c-0.5,0.5-0.5,1-0.1,1.4C42.6,28.5,43.1,28.5,43.6,28z"/>
	<path class="st0" d="M44.4,29.5l1.6-1.6l0.7,0.7l-1.5,1.5c-0.3,0.3-0.4,0.6-0.1,0.9c0.3,0.3,0.7,0.3,1.1,0l1.5-1.5l0.7,0.7
		l-2.5,2.5l-0.7-0.7l0.4-0.4c-0.4,0.1-0.8,0.1-1.3-0.4C43.8,30.8,43.8,30.2,44.4,29.5z"/>
	<path class="st0" d="M50.2,29.7l0.7,0.7l-3.7,3.7l-0.7-0.7L50.2,29.7z"/>
	<path class="st0" d="M48.4,33.9c0.6-0.6,1.4-0.3,2.1,0.5l0.3,0.3l0.1-0.1c0.3-0.3,0.4-0.6,0.1-0.9c-0.3-0.3-0.5-0.3-0.8-0.1
		l-0.7-0.7c0.6-0.6,1.4-0.3,2,0.3s0.8,1.3,0.1,2L50,36.9l-0.7-0.7l0.3-0.3c-0.3,0.1-0.7,0-1.1-0.4C48,35,47.9,34.4,48.4,33.9z
		 M50.2,35.3l0.2-0.2l-0.3-0.3c-0.4-0.4-0.7-0.6-1-0.3c-0.2,0.2-0.2,0.4,0.1,0.7C49.5,35.5,49.9,35.6,50.2,35.3z"/>
	<path class="st0" d="M53.1,34.9l0.7,0.7l-0.5,0.5c0.5-0.2,0.9-0.1,1.3,0.3L54,37.1c-0.5-0.5-1-0.7-1.5-0.2l-1.3,1.3l-0.7-0.7
		L53.1,34.9z"/>
</g>
</svg>
