<?xml version="1.0" encoding="utf-8"?>
<!-- Generator: Adobe Illustrator 19.0.0, SVG Export Plug-In . SVG Version: 6.00 Build 0)  -->
<svg version="1.1" id="Layer_1" xmlns="http://www.w3.org/2000/svg" xmlns:xlink="http://www.w3.org/1999/xlink" x="0px" y="0px"
	 viewBox="0 0 200 32" style="enable-background:new 0 0 200 32;" xml:space="preserve">
<style type="text/css">
	.st0{fill:#FFFFFF;}
</style>
<g id="XMLID_2_">
	<path id="XMLID_20_" class="st0" d="M198,0.5H2H0.1v1.8v27.4v1.8H2H198h1.8v-1.8V2.3V0.5H198z M198,29.7H2V2.3H198L198,29.7
		L198,29.7z"/>
	<polygon id="XMLID_19_" class="st0" points="17.7,21.8 20.1,21.8 20.1,12.5 23.6,12.5 23.6,10.2 14.2,10.2 14.2,12.5 17.7,12.5 	
		"/>
	<polygon id="XMLID_18_" class="st0" points="30.3,17.1 35.2,17.1 35.2,21.8 37.6,21.8 37.6,10.2 35.2,10.2 35.2,14.8 30.3,14.8 
		30.3,10.2 27.9,10.2 27.9,21.8 30.3,21.8 	"/>
	<polygon id="XMLID_17_" class="st0" points="50.6,19.6 45.3,19.6 45.3,17.1 50,17.1 50,14.8 45.3,14.8 45.3,12.4 50.5,12.4 
		50.5,10.2 42.9,10.2 42.9,21.8 50.6,21.8 	"/>
	<polygon id="XMLID_16_" class="st0" points="69.5,19.6 64.2,19.6 64.2,17.1 68.9,17.1 68.9,14.8 64.2,14.8 64.2,12.4 69.4,12.4 
		69.4,10.2 61.8,10.2 61.8,21.8 69.5,21.8 	"/>
	<polygon id="XMLID_15_" class="st0" points="75.7,21.8 78.6,17.6 81.4,21.8 84.2,21.8 80,15.8 84,10.2 81.2,10.2 78.6,14 76,10.2 
		73.2,10.2 77.1,15.8 73,21.8 	"/>
	<path id="XMLID_12_" class="st0" d="M90.6,17.7h1.8c2.4,0,4.2-1.2,4.2-3.8c0-2.5-1.8-3.7-4.2-3.7h-4.3v11.6h2.4L90.6,17.7
		L90.6,17.7z M90.6,12.5h1.7c1,0,1.9,0.4,1.9,1.5c0,1.1-1,1.5-1.9,1.5h-1.7V12.5z"/>
	<polygon id="XMLID_11_" class="st0" points="108.8,19.6 103.5,19.6 103.5,17.1 108.2,17.1 108.2,14.8 103.5,14.8 103.5,12.4 
		108.7,12.4 108.7,10.2 101.1,10.2 101.1,21.8 108.8,21.8 	"/>
	<path id="XMLID_8_" class="st0" d="M116,17.6h1.7l2.2,4.2h2.6l-2.5-4.6c1.3-0.5,2.2-1.6,2.2-3.3c0-2.5-1.8-3.7-4.1-3.7h-4.6v11.6
		h2.4V17.6z M116,12.5h2c0.9,0,1.9,0.3,1.9,1.4c0,1.1-0.9,1.5-1.8,1.5h-2V12.5z"/>
	<rect id="XMLID_7_" x="127.2" y="10.2" class="st0" width="2.4" height="11.6"/>
	<polygon id="XMLID_6_" class="st0" points="142.6,19.6 137.3,19.6 137.3,17.1 142,17.1 142,14.8 137.3,14.8 137.3,12.4 142.5,12.4 
		142.5,10.2 134.9,10.2 134.9,21.8 142.6,21.8 	"/>
	<polygon id="XMLID_5_" class="st0" points="149.8,13.8 154.9,21.8 157.6,21.8 157.6,10.2 155.2,10.2 155.2,18.1 150.2,10.2 
		147.4,10.2 147.4,21.8 149.8,21.8 	"/>
	<path id="XMLID_4_" class="st0" d="M168.2,22c3.4,0,5.2-2.4,5.5-3.8l-2.3-0.8c-0.2,0.9-1.2,2.3-3.2,2.3c-2.1,0-3.5-1.7-3.5-3.7
		c0-2,1.5-3.6,3.5-3.6c2,0,3,1.5,3.1,2.2l2.3-0.8c-0.4-1.6-2.1-3.8-5.4-3.8c-3.2,0-6,2.5-6,6C162.2,19.6,165.1,22,168.2,22z"/>
	<polygon id="XMLID_3_" class="st0" points="185.8,19.6 180.5,19.6 180.5,17.1 185.2,17.1 185.2,14.8 180.5,14.8 180.5,12.4 
		185.7,12.4 185.7,10.2 178.1,10.2 178.1,21.8 185.8,21.8 	"/>
</g>
</svg>
